<?xml version="1.0" encoding="UTF-8"?>
<svg id="Layer_2" data-name="Layer 2" xmlns="http://www.w3.org/2000/svg" viewBox="0 0 442.4 255.63">
  <defs>
    <style>
      .cls-1 {
        stroke-linecap: round;
        stroke-linejoin: round;
        stroke-width: .2px;
      }

      .cls-1, .cls-2 {
        fill: #fff;
        stroke: #bcbec0;
      }

      .cls-3 {
        letter-spacing: .27em;
      }

      .cls-2 {
        stroke-miterlimit: 10;
        stroke-width: .67px;
      }

      .cls-4 {
        letter-spacing: .3em;
      }

      .cls-5 {
        fill: #6d6e71;
        font-family: CormorantSC-Regular, 'Cormorant SC';
        font-size: 56.61px;
      }

      .cls-6 {
        fill: #4ebfd5;
      }

      .cls-6, .cls-7, .cls-8, .cls-9 {
        stroke-width: 0px;
      }

      .cls-7 {
        fill: #9acd70;
      }

      .cls-8 {
        fill: #ce98c4;
      }

      .cls-9 {
        fill: #eed075;
      }

      .cls-10 {
        fill: #231f20;
        font-family: 'Amsterdam-FourSlant_ttf', Amsterdam;
        font-size: 87.95px;
        letter-spacing: .1em;
      }
    </style>
  </defs>
  <g id="Layer_1-2" data-name="Layer 1">
    <g>
      <path class="cls-6" d="m356.45,138.92c.08-.02.16-.03.22-.06.13.05.27.09.42.13-.09.68.06,1.26.5,1.76.42.52.97.77,1.68.75.11.66.42,1.18.99,1.52.57.35,1.18.41,1.84.17.25.66.74,1.05,1.38,1.23.64.17,1.24.08,1.73-.3.42.25.8.49,1.18.71h1.12c.41-.22.8-.44,1.26-.71.46.35,1.05.46,1.71.28.52-.16.94-.41,1.23-.86.46.28.96.33,1.49.24.66-.11,1.16-.47,1.41-.99.53.03.99.06,1.43.09.35-.16.68-.31,1.02-.49.24-.36.49-.72.75-1.15.6.13,1.16-.05,1.68-.49.5-.44.77-.99.71-1.7.71-.08,1.23-.39,1.59-.94.36-.57.42-1.18.24-1.82.64-.28,1.02-.75,1.19-1.4.16-.64.05-1.24-.31-1.81.13-.09.24-.19.33-.3.13,0,.28-.03.42-.06.22.63.61,1.1,1.23,1.37.61.27,1.21.27,1.84-.06.39.55.9.88,1.55.94.68.08,1.24-.13,1.74-.63.5.47,1.1.61,1.77.49.66-.13,1.15-.46,1.41-1.01.5.05.94.08,1.38.13.33-.16.68-.33,1.01-.49.25-.38.52-.74.82-1.18.57.11,1.15-.05,1.66-.5.41-.35.68-.77.74-1.3.52.06.99-.11,1.43-.42.55-.39.85-.94.86-1.51.49-.2.91-.38,1.32-.53.24-.3.47-.58.71-.88.06-.44.11-.88.19-1.37.58-.14,1.02-.55,1.29-1.16.28-.63.27-1.24-.08-1.84.6-.38.93-.88,1.01-1.55.08-.66-.13-1.23-.58-1.73.47-.53.6-1.13.47-1.77-.13-.66-.49-1.15-1.07-1.49.08-.14.13-.28.16-.42.13-.06.25-.14.38-.24.47.47,1.02.72,1.68.69.68-.02,1.23-.27,1.65-.85.58.35,1.18.41,1.81.19.63-.24,1.05-.66,1.29-1.33.66.2,1.27.08,1.81-.33.55-.39.85-.91.85-1.52.47-.17.88-.33,1.29-.47.24-.3.47-.6.71-.88.06-.46.14-.9.22-1.41.57-.14,1.02-.55,1.29-1.18.2-.5.27-.99.09-1.49.5-.17.85-.53,1.1-1.01.33-.6.36-1.21.13-1.74.35-.38.66-.72.96-1.05.09-.36.17-.72.25-1.1-.13-.41-.27-.83-.42-1.3.47-.38.69-.94.68-1.62-.03-.68-.3-1.23-.9-1.62.39-.6.46-1.19.25-1.82-.22-.64-.64-1.07-1.27-1.32.17-.68.05-1.27-.36-1.81-.39-.52-.93-.82-1.6-.88.02-.16,0-.3-.03-.44.08-.11.16-.24.22-.38.64.22,1.24.2,1.84-.11.58-.3.96-.77,1.1-1.48.68.05,1.24-.14,1.71-.63.46-.47.66-1.04.58-1.74.46-.08.82-.25,1.1-.57v-8.83h-67.16v63.21l.72-1.84Z"/>
      <path class="cls-7" d="m356.77,16.42v61.42h-67.16v-6.3c.11-.11.24-.24.35-.36-.25-.55-.2-1.15.11-1.73.31-.61.8-.99,1.49-1.08-.08-.71.11-1.27.58-1.76.46-.47,1.04-.68,1.71-.63.13-.69.5-1.16,1.1-1.48.58-.3,1.19-.33,1.82-.09.06-.14.14-.27.24-.38-.03-.14-.05-.28-.05-.44-.66-.08-1.21-.36-1.6-.9-.39-.53-.53-1.12-.35-1.81-.63-.25-1.07-.68-1.27-1.3-.22-.63-.14-1.22.24-1.84-.58-.39-.85-.94-.88-1.62-.03-.66.19-1.23.66-1.62-.14-.46-.28-.88-.42-1.3.09-.36.17-.72.25-1.08.31-.35.61-.68.97-1.07-.24-.52-.22-1.13.11-1.73.25-.49.61-.83,1.12-1.01-.17-.5-.13-1.01.09-1.51.27-.61.72-1.02,1.29-1.16.08-.52.14-.97.22-1.41.24-.3.46-.58.69-.88.42-.16.83-.31,1.29-.49.02-.6.31-1.13.85-1.52.55-.41,1.15-.53,1.82-.31.24-.68.64-1.1,1.27-1.33.63-.24,1.24-.16,1.82.17.42-.57.97-.83,1.63-.85.66-.02,1.22.22,1.7.71.11-.11.24-.19.36-.25.03-.13.08-.27.16-.41-.57-.36-.93-.85-1.05-1.49-.14-.66,0-1.24.46-1.79-.46-.49-.66-1.05-.58-1.73.09-.66.42-1.16,1.02-1.54-.36-.61-.36-1.23-.09-1.85.27-.6.71-1.02,1.3-1.16.06-.49.13-.93.19-1.35.22-.3.46-.6.69-.88.42-.17.85-.35,1.34-.53.02-.58.3-1.12.85-1.51.44-.33.91-.49,1.44-.44.06-.52.33-.94.74-1.3.5-.44,1.1-.61,1.66-.49.3-.44.55-.82.8-1.18.35-.17.68-.33,1.02-.49.44.03.88.08,1.37.13.27-.55.77-.9,1.43-1.02.66-.13,1.26.02,1.77.5.5-.5,1.07-.71,1.73-.64.66.06,1.18.39,1.55.96.63-.35,1.24-.33,1.84-.06.61.27,1.01.72,1.22,1.37.16-.05.3-.06.44-.06.09-.11.19-.22.31-.31-.36-.57-.47-1.16-.3-1.79.17-.64.53-1.13,1.19-1.41-.2-.64-.14-1.24.22-1.81.38-.57.88-.88,1.59-.96-.05-.69.2-1.26.72-1.7.5-.44,1.08-.61,1.68-.49.27-.41.5-.77.75-1.15.33-.16.68-.33,1.01-.49.46.03.91.06,1.43.11.27-.52.75-.88,1.43-1.01.53-.09,1.02-.03,1.48.24.28-.44.71-.71,1.23-.85.66-.19,1.27-.08,1.73.27.46-.25.85-.47,1.24-.71h1.12c.39.24.77.46,1.19.71.47-.36,1.07-.46,1.71-.28.66.17,1.13.57,1.38,1.21.68-.24,1.27-.17,1.84.17.58.36.9.86.99,1.54.72-.03,1.26.24,1.7.74.42.52.58,1.1.5,1.76.16.03.3.08.42.14.03-.02.06-.03.09-.03Z"/>
      <path class="cls-9" d="m423.91,71.75v6.09h-67.14V16.42c.09-.05.2-.08.33-.11-.09-.66.06-1.24.5-1.76.42-.5.97-.77,1.68-.74.11-.68.42-1.18.99-1.54.57-.35,1.18-.41,1.84-.17.25-.64.74-1.04,1.38-1.21.64-.17,1.24-.08,1.73.28.42-.25.8-.47,1.18-.71h1.12c.41.24.8.46,1.26.71.46-.35,1.05-.46,1.71-.27.52.14.94.41,1.22.85.46-.27.96-.33,1.49-.24.66.13,1.16.49,1.41,1.01.53-.05.99-.08,1.43-.11.35.16.68.33,1.02.49.24.38.49.74.75,1.15.6-.13,1.16.05,1.68.49.5.44.77,1.01.71,1.7.71.08,1.22.39,1.59.96.36.57.42,1.16.24,1.81.64.28,1.02.77,1.19,1.41.16.63.05,1.22-.31,1.79.13.09.24.2.33.31.13,0,.28.02.42.06.22-.64.61-1.1,1.23-1.37.61-.27,1.21-.28,1.84.06.39-.57.9-.9,1.55-.96.68-.06,1.24.14,1.74.64.5-.49,1.1-.63,1.77-.5.66.13,1.15.47,1.41,1.02.5-.05.94-.09,1.38-.13.33.16.68.31,1.01.49.25.36.52.74.82,1.18.57-.13,1.15.05,1.66.49.41.36.68.79.74,1.3.52-.05.99.11,1.43.44.55.39.85.93.86,1.51.49.19.91.36,1.32.53.24.28.47.58.71.88.06.42.11.86.19,1.35.58.14,1.02.57,1.29,1.16.28.63.27,1.24-.08,1.85.6.38.93.88,1,1.54.08.68-.13,1.24-.58,1.73.47.55.6,1.13.47,1.79-.13.64-.49,1.13-1.07,1.49.08.14.13.28.16.41.13.06.25.14.38.25.47-.49,1.02-.72,1.68-.71.68.02,1.22.28,1.65.85.58-.33,1.18-.41,1.81-.17.63.24,1.05.66,1.29,1.33.66-.22,1.27-.09,1.81.31.55.39.85.93.85,1.52.47.17.88.33,1.29.49.24.3.47.58.71.88.06.44.14.9.22,1.41.57.14,1.02.55,1.29,1.16.2.5.27,1.01.09,1.51.5.17.85.52,1.1,1.01.33.6.36,1.21.13,1.73.35.39.66.72.96,1.07.09.36.17.72.25,1.08-.13.42-.27.85-.42,1.3.47.39.69.96.68,1.62-.03.68-.3,1.22-.9,1.62.39.61.46,1.21.25,1.84-.22.63-.64,1.05-1.27,1.3.17.69.05,1.27-.36,1.81-.39.53-.93.82-1.6.9.02.16,0,.3-.03.44.08.11.16.24.22.38.64-.24,1.24-.2,1.84.09.58.31.96.79,1.1,1.48.68-.05,1.24.16,1.71.63.46.49.66,1.05.58,1.76.69.09,1.18.47,1.49,1.08.31.58.36,1.18.09,1.73.19.2.36.38.53.57Z"/>
      <path class="cls-8" d="m356.45,138.92v-61.38h-67.16v5.87c.22.22.44.44.66.69-.25.55-.2,1.15.11,1.74s.8.97,1.49,1.08c-.08.71.11,1.27.58,1.74.46.49,1.04.68,1.71.63.13.71.5,1.18,1.1,1.48.58.31,1.19.33,1.82.11.06.14.14.27.24.38-.03.14-.05.28-.05.44-.66.06-1.21.36-1.6.88-.39.53-.53,1.13-.35,1.81-.63.25-1.07.68-1.27,1.32-.22.63-.14,1.23.24,1.82-.58.39-.85.94-.88,1.62s.19,1.24.66,1.62c-.14.47-.28.9-.42,1.3.09.38.17.74.25,1.1.31.33.61.68.97,1.05-.24.53-.22,1.15.11,1.74.25.47.61.83,1.12,1.01-.17.5-.13.99.09,1.49.27.63.72,1.04,1.29,1.18.08.52.14.96.22,1.41.24.28.46.58.69.88.42.14.83.3,1.29.47.02.61.31,1.13.85,1.52.55.41,1.15.53,1.82.33.24.68.64,1.1,1.27,1.33.63.22,1.24.16,1.82-.19.42.58.97.83,1.63.85.66.03,1.23-.22,1.7-.69.11.09.24.17.36.24.03.14.08.28.16.42-.57.35-.93.83-1.05,1.49-.14.64,0,1.24.46,1.77-.46.5-.66,1.07-.58,1.73.09.68.42,1.18,1.02,1.55-.36.6-.36,1.21-.09,1.84.27.61.71,1.02,1.3,1.16.06.49.13.93.19,1.37.22.3.46.58.69.88.42.16.85.33,1.33.53.02.57.3,1.12.85,1.51.44.31.91.49,1.44.42.06.53.33.96.74,1.3.5.46,1.1.61,1.66.5.3.44.55.8.8,1.18.35.16.68.33,1.02.49.44-.05.88-.08,1.37-.13.27.55.77.88,1.43,1.01.66.13,1.26-.02,1.77-.49.5.5,1.07.71,1.73.63.66-.06,1.18-.39,1.55-.94.63.33,1.24.33,1.84.06.61-.27,1.01-.74,1.23-1.37.16.03.3.06.44.06.09.11.19.2.31.3-.36.57-.47,1.16-.3,1.81.17.64.53,1.12,1.19,1.4-.2.64-.14,1.26.22,1.82.38.55.88.86,1.59.94-.05.71.2,1.26.72,1.7.5.44,1.08.61,1.68.49.27.42.5.79.75,1.15.33.17.68.33,1.01.49.46-.03.91-.06,1.43-.09.27.52.75.88,1.43.99.53.09,1.02.05,1.48-.24.28.46.71.71,1.23.86.66.17,1.27.06,1.73-.28.46.27.85.49,1.24.71h1.12c.39-.22.77-.46,1.19-.71.47.38,1.07.47,1.71.3.66-.17,1.13-.57,1.38-1.23.68.24,1.27.17,1.84-.17.58-.35.9-.86.99-1.52.71.02,1.24-.24,1.68-.74l.72-1.84Z"/>
      <path class="cls-1" d="m419.17,77.84h-3.35c-.13.11-.28.2-.44.3-.06-.11-.13-.2-.19-.3h-1.27c.05.13.06.25.08.38.27.31.46.68.5,1.13.05.52-.14,1.04-.52,1.44-.09.69-.25,1.35-.52,1.93-.05.08-.08.17-.11.25-.25-.57-.49-1.24-.69-1.93-.47-.96-.88-2.18-1.24-3.2h-2.56c.86,1.15,1.59,2.25,2.21,3.3.77,1.29,1.4,2.48,1.92,3.6.06-.41.11-.82.16-1.22.02-.05.03-.08.05-.13.72,1.08,1.59,1.7,2.83,1.29,1.44-.47,1.93-1.55,1.79-2.98.35-.19.69-.35.99-.57,1.23-.86,1.35-2.32.36-3.28Zm-3.53,5.73c-.39.09-.75.02-1.02-.28-.24-.28-.42-.6-.66-.94.71-.46,1.18-1.01,1.51-1.66.68.19,1.21.88,1.19,1.55,0,.66-.39,1.16-1.02,1.33Zm2.73-3.63c-.28.31-.64.5-.99.6-.58-.41-1.1-.79-1.6-1.16.47-.41.97-.83,1.57-1.32.28.17.66.33.96.57.46.38.46.88.06,1.32Zm-61.6-36.66v.06c.11.06.2.13.31.17-.11-.08-.22-.16-.31-.24Zm62.4,34.55h-3.35c-.13.11-.28.2-.44.3-.06-.11-.13-.2-.19-.3h-1.27c.05.13.06.25.08.38.27.31.46.68.5,1.13.05.52-.14,1.04-.52,1.44-.09.69-.25,1.35-.52,1.93-.05.08-.08.17-.11.25-.25-.57-.49-1.24-.69-1.93-.47-.96-.88-2.18-1.24-3.2h-2.56c.86,1.15,1.59,2.25,2.21,3.3.77,1.29,1.4,2.48,1.92,3.6.06-.41.11-.82.16-1.22.02-.05.03-.08.05-.13.72,1.08,1.59,1.7,2.83,1.29,1.44-.47,1.93-1.55,1.79-2.98.35-.19.69-.35.99-.57,1.23-.86,1.35-2.32.36-3.28Zm-3.53,5.73c-.39.09-.75.02-1.02-.28-.24-.28-.42-.6-.66-.94.71-.46,1.18-1.01,1.51-1.66.68.19,1.21.88,1.19,1.55,0,.66-.39,1.16-1.02,1.33Zm2.73-3.63c-.28.31-.64.5-.99.6-.58-.41-1.1-.79-1.6-1.16.47-.41.97-.83,1.57-1.32.28.17.66.33.96.57.46.38.46.88.06,1.32Zm-61.6-36.66v.06c.11.06.2.13.31.17-.11-.08-.22-.16-.31-.24Zm67.49,34.36c.38-.38.53-.85.57-1.4.03-.68-.2-1.24-.66-1.6.16-.5.28-.94.42-1.38-.09-.36-.17-.72-.25-1.08-.14-.14-.28-.3-.42-.44-.17-.19-.35-.36-.53-.57.27-.55.22-1.15-.09-1.73-.31-.61-.8-.99-1.49-1.08.08-.71-.13-1.27-.58-1.76-.47-.47-1.04-.68-1.71-.63-.14-.69-.52-1.16-1.1-1.48-.6-.3-1.19-.33-1.84-.09-.06-.14-.14-.27-.22-.38.03-.14.05-.28.03-.44.68-.08,1.21-.36,1.6-.9.41-.53.53-1.12.36-1.81.63-.25,1.05-.68,1.27-1.3.2-.63.14-1.22-.25-1.84.6-.39.86-.94.9-1.62.02-.66-.2-1.23-.68-1.62.16-.46.3-.88.42-1.3-.08-.36-.16-.72-.25-1.08-.3-.35-.61-.68-.96-1.07.24-.52.2-1.13-.13-1.73-.25-.49-.6-.83-1.1-1.01.17-.5.11-1.01-.09-1.51-.27-.61-.72-1.02-1.29-1.16-.08-.52-.16-.97-.22-1.41-.24-.3-.47-.58-.71-.88-.41-.16-.82-.31-1.29-.49,0-.6-.3-1.13-.85-1.52-.53-.41-1.15-.53-1.81-.31-.24-.68-.66-1.1-1.29-1.33-.63-.24-1.23-.16-1.81.17-.42-.57-.97-.83-1.65-.85-.66-.02-1.21.22-1.68.71-.13-.11-.25-.19-.38-.25-.03-.13-.08-.27-.16-.41.58-.36.94-.85,1.07-1.49.13-.66,0-1.24-.47-1.79.46-.49.66-1.05.58-1.73-.08-.66-.41-1.16-1-1.54.35-.61.36-1.23.08-1.85-.27-.6-.71-1.02-1.29-1.16-.08-.49-.13-.93-.19-1.35-.24-.3-.47-.6-.71-.88-.41-.17-.83-.35-1.32-.53-.02-.58-.31-1.12-.86-1.51-.44-.33-.91-.49-1.43-.44-.06-.52-.33-.94-.74-1.3-.52-.44-1.1-.61-1.66-.49-.3-.44-.57-.82-.82-1.18-.33-.17-.68-.33-1.01-.49-.44.03-.88.08-1.38.13-.27-.55-.75-.9-1.41-1.02-.68-.13-1.27.02-1.77.5-.5-.5-1.07-.71-1.74-.64-.66.06-1.16.39-1.55.96-.63-.35-1.23-.33-1.84-.06-.61.27-1.01.72-1.23,1.37-.14-.05-.3-.06-.42-.06-.09-.11-.2-.22-.33-.31.36-.57.47-1.16.31-1.79-.17-.64-.55-1.13-1.19-1.41.19-.64.13-1.24-.24-1.81-.36-.57-.88-.88-1.59-.96.06-.69-.2-1.26-.71-1.7-.52-.44-1.08-.61-1.68-.49-.27-.41-.52-.77-.75-1.15-.35-.16-.68-.33-1.02-.49-.44.03-.9.06-1.43.11-.25-.52-.75-.88-1.41-1.01-.53-.09-1.04-.03-1.49.24-.28-.44-.71-.71-1.22-.85-.66-.19-1.26-.08-1.71.27-.46-.25-.85-.47-1.26-.71h-1.12c-.38.24-.75.46-1.18.71-.49-.36-1.08-.46-1.73-.28-.64.17-1.13.57-1.38,1.21-.66-.24-1.27-.17-1.84.17-.57.36-.88.86-.99,1.54-.71-.03-1.26.24-1.68.74-.44.52-.6,1.1-.5,1.76-.13.03-.24.06-.33.11-.03,0-.06.02-.09.03-.13-.06-.27-.11-.42-.14.08-.66-.08-1.24-.5-1.76-.44-.5-.97-.77-1.7-.74-.09-.68-.41-1.18-.99-1.54-.57-.35-1.16-.41-1.84-.17-.25-.64-.72-1.04-1.38-1.21-.64-.17-1.24-.08-1.71.28-.42-.25-.8-.47-1.19-.71h-1.12c-.39.24-.79.46-1.24.71-.46-.35-1.07-.46-1.73-.27-.52.14-.94.41-1.23.85-.46-.27-.94-.33-1.48-.24-.68.13-1.16.49-1.43,1.01-.52-.05-.97-.08-1.43-.11-.33.16-.68.33-1.01.49-.25.38-.49.74-.75,1.15-.6-.13-1.18.05-1.68.49-.52.44-.77,1.01-.72,1.7-.71.08-1.21.39-1.59.96-.36.57-.42,1.16-.22,1.81-.66.28-1.02.77-1.19,1.41-.17.63-.06,1.22.3,1.79-.13.09-.22.2-.31.31-.14,0-.28.02-.44.06-.22-.64-.61-1.1-1.22-1.37-.6-.27-1.21-.28-1.84.06-.38-.57-.9-.9-1.55-.96-.66-.06-1.23.14-1.73.64-.52-.49-1.12-.63-1.77-.5-.66.13-1.16.47-1.43,1.02-.49-.05-.93-.09-1.37-.13-.35.16-.68.31-1.02.49-.25.36-.5.74-.8,1.18-.57-.13-1.16.05-1.66.49-.41.36-.68.79-.74,1.3-.53-.05-1.01.11-1.44.44-.55.39-.83.93-.85,1.51-.49.19-.91.36-1.34.53-.24.28-.47.58-.69.88-.06.42-.13.86-.19,1.35-.6.14-1.04.57-1.3,1.16-.27.63-.27,1.24.09,1.85-.6.38-.93.88-1.02,1.54-.08.68.13,1.24.58,1.73-.46.55-.6,1.13-.46,1.79.13.64.49,1.13,1.05,1.49-.08.14-.13.28-.16.41-.13.06-.25.14-.36.25-.47-.49-1.04-.72-1.7-.71-.66.02-1.21.28-1.63.85-.58-.33-1.19-.41-1.82-.17-.63.24-1.04.66-1.27,1.33-.68-.22-1.27-.09-1.82.31-.53.39-.83.93-.85,1.52-.46.17-.86.33-1.29.49-.24.3-.46.58-.69.88-.08.44-.14.9-.22,1.41-.57.14-1.02.55-1.29,1.16-.22.5-.27,1.01-.09,1.51-.5.17-.86.52-1.12,1.01-.33.6-.35,1.21-.11,1.73-.36.39-.66.72-.97,1.07-.08.36-.16.72-.25,1.08.14.42.28.85.42,1.3-.47.39-.69.96-.66,1.62.03.68.3,1.22.88,1.62-.38.61-.46,1.21-.24,1.84.2.63.64,1.05,1.27,1.3-.19.69-.05,1.27.35,1.81.39.53.94.82,1.6.9,0,.16.02.3.05.44-.09.11-.17.24-.24.38-.63-.24-1.24-.2-1.82.09-.6.31-.97.79-1.1,1.48-.68-.05-1.26.16-1.71.63-.47.49-.66,1.05-.58,1.76-.69.09-1.18.47-1.49,1.08-.31.58-.36,1.18-.11,1.73-.11.13-.24.25-.35.36-.2.22-.41.42-.6.64-.09.36-.17.72-.25,1.08.13.44.25.88.41,1.38-.44.36-.68.93-.64,1.6.02.55.19,1.02.55,1.4-.36.38-.53.85-.55,1.38-.03.69.2,1.24.64,1.62-.16.5-.28.94-.41,1.37.08.36.16.74.25,1.1.09.09.19.2.28.3.22.22.44.44.66.69-.25.55-.2,1.15.11,1.74.31.6.8.97,1.49,1.08-.08.71.11,1.27.58,1.74.46.49,1.04.68,1.71.63.13.71.5,1.18,1.1,1.48.58.31,1.19.33,1.82.11.06.14.14.27.24.38-.03.14-.05.28-.05.44-.66.06-1.21.36-1.6.88-.39.53-.53,1.13-.35,1.81-.63.25-1.07.68-1.27,1.32-.22.63-.14,1.23.24,1.82-.58.39-.85.94-.88,1.62-.03.68.19,1.24.66,1.62-.14.47-.28.9-.42,1.3.09.38.17.74.25,1.1.31.33.61.68.97,1.05-.24.53-.22,1.15.11,1.74.25.47.61.83,1.12,1.01-.17.5-.13.99.09,1.49.27.63.72,1.04,1.29,1.18.08.52.14.96.22,1.41.24.28.46.58.69.88.42.14.83.3,1.29.47.02.61.31,1.13.85,1.52.55.41,1.15.53,1.82.33.24.68.64,1.1,1.27,1.33.63.22,1.24.16,1.82-.19.42.58.97.83,1.63.85.66.03,1.22-.22,1.7-.69.11.09.24.17.36.24.03.14.08.28.16.42-.57.35-.93.83-1.05,1.49-.14.64,0,1.24.46,1.77-.46.5-.66,1.07-.58,1.73.09.68.42,1.18,1.02,1.55-.36.6-.36,1.21-.09,1.84.27.61.71,1.02,1.3,1.16.06.49.13.93.19,1.37.22.3.46.58.69.88.42.16.85.33,1.34.53.02.57.3,1.12.85,1.51.44.31.91.49,1.44.42.06.53.33.96.74,1.3.5.46,1.1.61,1.66.5.3.44.55.8.8,1.18.35.16.68.33,1.02.49.44-.05.88-.08,1.37-.13.27.55.77.88,1.43,1.01.66.13,1.26-.02,1.77-.49.5.5,1.07.71,1.73.63.66-.06,1.18-.39,1.55-.94.63.33,1.24.33,1.84.06.61-.27,1.01-.74,1.22-1.37.16.03.3.06.44.06.09.11.19.2.31.3-.36.57-.47,1.16-.3,1.81.17.64.53,1.12,1.19,1.4-.2.64-.14,1.26.22,1.82.38.55.88.86,1.59.94-.05.71.2,1.26.72,1.7.5.44,1.08.61,1.68.49.27.42.5.79.75,1.15.33.17.68.33,1.01.49.46-.03.91-.06,1.43-.09.27.52.75.88,1.43.99.53.09,1.02.05,1.48-.24.28.46.71.71,1.23.86.66.17,1.27.06,1.73-.28.46.27.85.49,1.24.71h1.12c.39-.22.77-.46,1.19-.71.47.38,1.07.47,1.71.3.66-.17,1.13-.57,1.38-1.22.68.24,1.27.17,1.84-.17.58-.35.9-.86.99-1.52.71.02,1.24-.24,1.68-.74l.02-.02c.42-.5.58-1.08.5-1.76.08-.02.14-.03.2-.06.08-.02.16-.03.22-.06.13.05.27.09.42.13-.09.68.06,1.26.5,1.76.42.52.97.77,1.68.75.11.66.42,1.18.99,1.52.57.35,1.18.41,1.84.17.25.66.74,1.05,1.38,1.22.64.17,1.24.08,1.73-.3.42.25.8.49,1.18.71h1.12c.41-.22.8-.44,1.26-.71.46.35,1.05.46,1.71.28.52-.16.94-.41,1.22-.86.46.28.96.33,1.49.24.66-.11,1.16-.47,1.41-.99.53.03.99.06,1.43.09.35-.16.68-.31,1.02-.49.24-.36.49-.72.75-1.15.6.13,1.16-.05,1.68-.49.5-.44.77-.99.71-1.7.71-.08,1.22-.39,1.59-.94.36-.57.42-1.18.24-1.82.64-.28,1.02-.75,1.19-1.4.16-.64.05-1.24-.31-1.81.13-.09.24-.19.33-.3.13,0,.28-.03.42-.06.22.63.61,1.1,1.23,1.37.61.27,1.21.27,1.84-.06.39.55.9.88,1.55.94.68.08,1.24-.13,1.74-.63.5.47,1.1.61,1.77.49.66-.13,1.15-.46,1.41-1.01.5.05.94.08,1.38.13.33-.16.68-.33,1.01-.49.25-.38.52-.74.82-1.18.57.11,1.15-.05,1.66-.5.41-.35.68-.77.74-1.3.52.06.99-.11,1.43-.42.55-.39.85-.94.86-1.51.49-.2.91-.38,1.32-.53.24-.3.47-.58.71-.88.06-.44.11-.88.19-1.37.58-.14,1.02-.55,1.29-1.16.28-.63.27-1.24-.08-1.84.6-.38.93-.88,1-1.55.08-.66-.13-1.22-.58-1.73.47-.53.6-1.13.47-1.77-.13-.66-.49-1.15-1.07-1.49.08-.14.13-.28.16-.42.13-.06.25-.14.38-.24.47.47,1.02.72,1.68.69.68-.02,1.22-.27,1.65-.85.58.35,1.18.41,1.81.19.63-.24,1.05-.66,1.29-1.33.66.2,1.27.08,1.81-.33.55-.39.85-.91.85-1.52.47-.17.88-.33,1.29-.47.24-.3.47-.6.71-.88.06-.46.14-.9.22-1.41.57-.14,1.02-.55,1.29-1.18.2-.5.27-.99.09-1.49.5-.17.85-.53,1.1-1.01.33-.6.36-1.21.13-1.74.35-.38.66-.72.96-1.05.09-.36.17-.72.25-1.1-.13-.41-.27-.83-.42-1.3.47-.38.69-.94.68-1.62-.03-.68-.3-1.22-.9-1.62.39-.6.46-1.19.25-1.82-.22-.64-.64-1.07-1.27-1.32.17-.68.05-1.27-.36-1.81-.39-.52-.93-.82-1.6-.88.02-.16,0-.3-.03-.44.08-.11.16-.24.22-.38.64.22,1.24.2,1.84-.11.58-.3.96-.77,1.1-1.48.68.05,1.24-.14,1.71-.63.46-.47.66-1.04.58-1.74.46-.08.82-.25,1.1-.57.16-.13.28-.31.39-.52.31-.6.36-1.19.09-1.74.35-.36.64-.68.96-.99.08-.36.16-.74.25-1.1-.14-.42-.27-.86-.42-1.37.46-.38.69-.93.66-1.62-.03-.53-.19-1.01-.57-1.38Zm-.61-1.43c-.03.46-.2.72-.61.75-.38.05-.77.02-1.22,0,.02-.58.05-1.08.06-1.63.47.03.85.03,1.23.11.42.08.57.31.55.77Zm-.28-3.16c.05.27.03.55-.22.71-.41.27-.88.31-1.37.35-.11-.47-.22-.93-.33-1.43.47-.27.96-.36,1.46-.25.31.06.41.35.46.63Zm-1.81-3.49c.33-.05.53.13.66.39.14.25.25.53.02.8-.33.38-.79.57-1.29.68-.24-.44-.44-.85-.68-1.29.42-.27.82-.52,1.29-.58Zm-1.95-2.37c.27-.11.57.02.82.3.24.27.27.47.09.75-.25.38-.61.64-1.01.88l-1.02-1.02c.35-.39.68-.71,1.12-.91Zm-2.84-1.4c.38-.47.75-.49,1.29-.11.2.14.27.33.19.57-.16.42-.46.75-.75,1.08-.42-.25-.82-.47-1.29-.74.2-.28.36-.57.57-.8Zm.39-4.02c-.31.57-.66.72-1.21.46-.28-.13-.55-.31-.85-.49.3-.44.57-.82.85-1.21.41.17.8.33,1.13.64.17.17.2.38.08.6Zm-3.28,3.17c.3-.61,1.16-.66,1.63-.03-.13.38-.27.82-.42,1.26-.53-.13-.99-.24-1.49-.35.09-.33.17-.61.28-.88Zm-.8-1.37c.41-.33.77-.63,1.19-.97.33.35.66.68.93.96-.14.77-.94,1.1-1.48.68-.22-.19-.41-.41-.64-.66Zm5.43-4.48c-.09.38-.31.61-.6.63-.49.02-.93-.13-1.4-.33.16-.47.31-.91.47-1.38.46.06.9.14,1.29.38.28.17.33.36.24.71Zm.55-2.98c0,.28-.11.53-.42.63-.46.16-.93.09-1.43.05.03-.5.05-.97.06-1.46.5-.11.99-.14,1.46.05.31.14.35.44.33.74Zm-.82-3.83c.3.03.42.27.5.53.08.28.13.57-.13.77-.41.31-.9.44-1.44.41-.11-.5-.2-.96-.31-1.43.46-.19.9-.35,1.38-.28Zm-.61-2.42c.22.39.19.68-.16.93-.31.22-.66.39-1.05.63-.27-.49-.5-.93-.79-1.44.41-.2.75-.41,1.12-.53.39-.14.66.02.88.42Zm-2.07-3.03c.41-.13.66.03.83.44.19.44.14.75-.22.96-.33.2-.69.35-1.12.53-.22-.53-.42-.99-.64-1.51.44-.16.79-.33,1.15-.42Zm-1.46-2.64c.3-.08.5.14.68.36.16.24.25.49.09.74-.25.42-.64.68-1.07.91-.31-.39-.6-.75-.93-1.15.31-.44.72-.75,1.22-.86Zm-2.47-1.99c.28-.19.53-.11.77.06.24.17.46.39.36.72-.14.49-.47.85-.86,1.18-.41-.3-.79-.58-1.18-.86.27-.42.52-.83.91-1.1Zm-2.78-1.29c.19-.2.5-.24.86-.08.33.14.44.31.41.63-.05.46-.27.85-.52,1.24-.47-.17-.9-.31-1.37-.49.14-.5.3-.93.61-1.3Zm-3.17-.03c.13-.58.47-.77,1.12-.66.24.05.39.19.41.44.05.46-.08.86-.2,1.29-.49-.03-.94-.06-1.48-.09.06-.35.08-.66.16-.97Zm6.52,5.28c.99,1.24,1.65,2.47,1.98,3.78.82,1.07,1.37,2.36,1.71,3.89.85,3.38-.66,7.26-4.3,9.25.05.19.09.38.14.58l-.03.02c.06.27.09.52.14.77.33,1.12.6,2.37.2,3.17v.03h-.03c-.06.13-.14.27-.25.36-.66.58-2.39.58-3.25.41-.05-.02-.09-.02-.13-.03.06-.22.13-.47.2-.72l-.03.03c1.22-2.51.58-6.66.77-9.47.17.31.36.64.53.99.57,1.04,1.18,2.18,1.55,3.3-.39-1.4-.82-2.8-1.3-4.16-.02-.03-.02-.06-.02-.09,1.12.68,2.17.85,3.11-.06,1.08-1.05,1.05-2.25.31-3.46.24-.33.47-.63.64-.94.79-1.4.14-2.86-1.35-3.22.64-1.38-.09-2.8-1.66-3.05-.36-.06-.74-.06-1.13-.09-.49-1.33-1.41-2.1-2.91-1.9-1.3.17-1.82,1.1-1.99,2.39-.03-.03-.06-.06-.09-.09-.13-.19-.25-.39-.38-.58,0,.19,0,.39.02.6.02,2.8-.06,6.89-1.04,11.95-.94,5.03-2.98,10.99-6.47,16.57-.24.38-.47.77-.75,1.15-.03.09-.09.2-.19.3-3.31,5.04-7.62,9.66-12.16,14.06l-3.71,3.55c-1.33,1.23-2.53,2.18-3.77,3.25-2.42,2.06-4.73,4.05-6.82,6.11-4.15,4.07-7.32,8.65-8.28,13.32-1,4.63-.14,8.61.53,11.12.19.71.38,1.32.55,1.85-.09-.02-.2-.02-.31-.02-.22-.44-.44-.97-.69-1.57-.49-1.21-1.04-2.76-1.41-4.71-.38-1.95-.57-4.32-.19-6.97.36-2.64,1.32-5.48,2.78-8.09,1.46-2.64,3.35-5.1,5.43-7.41,2.1-2.31,4.41-4.49,6.83-6.67,1.18-1.08,2.5-2.18,3.6-3.25l3.66-3.55c3.78-3.67,7.35-7.26,10.35-11.01.09-.09.17-.19.24-.3.83-1.02,1.6-2.07,2.32-3.13,3.46-4.98,5.69-10.3,6.96-15.01,1.3-4.71,1.76-8.75,2.04-11.51.03-.44.06-.82.09-1.19-.64-.99-1.3-1.96-1.99-2.91,3.82-1.62,7.81-.36,9.93,2.39Zm.22,18.75c0,.25-.02.52-.02.8h-.2c-.09-.49-.2-.96-.33-1.43.06-.03.13-.06.19-.09.13.25.25.49.36.72Zm-5.26-1.71c-.8,4.4-2.53,9.44-5.25,14.32-.05.09-.09.2-.16.3-.38.68-.77,1.33-1.18,1.99-3.44,5.62-8.01,10.87-12.97,15.83-4.96,4.99-9.94,9.23-14.02,13.52-4.08,4.24-7.19,8.97-7.84,13.71-.38,2.53-.17,4.76.22,6.69.03.55.11,1.08.24,1.63-.05.02-.09.05-.16.06-.38.13-.61-.06-.77-.33-.11-.2-.17-.46-.17-.66v-.02c-.06-.2-.13-.39-.19-.6-.52-1.88-.93-4.22-.72-6.91.19-2.69,1.05-5.62,2.45-8.34,1.38-2.72,3.24-5.25,5.28-7.65,4.11-4.81,8.98-9.22,13.87-14.12,4.88-4.88,9.36-9.74,12.82-14.81,0,0,0-.02.02-.02.06-.09.13-.2.19-.3,3.36-4.93,5.64-10.08,6.85-14.73,1.16-4.33,1.52-8.1,1.68-10.84-.38-.72-.75-1.44-1.15-2.14,0-.02.02-.03.02-.05.85.02,1.59.53,1.84,1.23.22.6.14,1.13-.11,1.66,0,.14,0,.28.02.44.66.09,1.21.36,1.59.97.38.63.31,1.52-.19,2.21-.02-.02-.03-.02-.05-.02-.42-1.05-.86-2.07-1.35-3.09.06,2.62-.05,6.03-.79,10.02Zm5.56,36.33c-.28.6-1.07,1.01-1.74.88-.02-.74-.22-1.44-.64-2.15.36-.2.66-.41.99-.57.38-.16.74-.06,1.05.19.49.42.63,1.05.35,1.65Zm.55,2.8c.16.57-.06,1.04-.64,1.16-.38.09-.77.08-1.1.11-.33-.71-.6-1.3-.85-1.88.61-.11,1.26-.22,1.95-.35.27.24.52.55.64.96Zm-2.1,1.99c.19.28.46.58.61.93.25.53.03,1.01-.5,1.23-.41.16-.82.17-1.16.11-.33-.63-.64-1.19-.94-1.74.61-.16,1.24-.33,1.99-.52Zm-1.81-.77c-.02-.2-.03-.39-.06-.58.16-.09.33-.19.49-.31.17.25.3.49.38.74-.24.09-.5.14-.8.16Zm.17-2.36c-.38.61-.94.88-1.63.97.5-1.04.97-2.09,1.4-3.17.02,0,.03-.02.05-.02.5.68.57,1.57.19,2.21Zm-1.19,4.7c.52.44.69,1.3.39,1.92-.28.58-.86.86-1.49.74-.41-.08-.69-.3-.8-.69-.09-.36-.13-.72-.19-1.13.83-.11,1.49-.39,2.09-.83Zm-2.14-.39s-.02-.03-.02-.05c.57-1.01,1.12-2.03,1.62-3.08.35.61.49,1.21.24,1.88-.25.71-.99,1.21-1.84,1.24Zm3.19-9.06c-.13.5-.38,1.01-.75,1.57l-.11-.13c.02-.09,0-.22,0-.33.03-2.61-1.02-6.56-2.23-8.76,1.23,1.4,2.01,3.77,2.81,5.45.38.82.46,1.51.28,2.2Zm-3.02.38c.19,1.41.28,2.4.33,2.97-.03.03-.05.06-.08.09l-.94-3.35c-.35-1.21-.79-2.7-1.44-4.43-.66-1.74-1.52-3.77-2.98-5.89-.27-.41-.6-.8-.91-1.19.31-.46.63-.91.94-1.37.69.86,1.3,1.73,1.76,2.53,1.51,2.54,2.1,4.62,2.54,6.34.42,1.73.63,3.14.79,4.29Zm-2.2,17.81c-.71.36-1.46-.06-1.46-.74.02-.3.08-.58.11-.91.52.11.97.2,1.51.33-.06.47-.11.93-.16,1.32Zm.13,3.55c.02.25-.09.42-.35.5-.42.14-.86.11-1.3.08-.08-.49-.14-.93-.24-1.44.36-.03.68-.08.99-.08.6,0,.85.3.9.94Zm-.99-2.47c-.38.13-.82.28-1.26.46-.24-.5-.42-.93-.66-1.4.31-.11.58-.24.86-.3.66-.16,1.26.47,1.05,1.24Zm-1.93-2.42c-.2.16-.41.3-.63.47-.05-.05-.09-.09-.14-.16.31-.38.61-.75.91-1.15.06.03.13.06.19.09-.11.27-.22.5-.33.74Zm-.99-6.12l.05-.06c-1.62-.24-3.24-.53-4.85-.85-.27-.47-.5-.97-.74-1.51,3.02.69,6.61.41,9.56-.71,0,.03.02.05.02.09-1.19,1.23-2.8,2.18-4.04,3.03Zm-1.52,1.73c-.27.28-.53.6-.8.88-.33-.36-.66-.75-.97-1.19.58.11,1.18.22,1.77.31Zm-4.68,16.43c.05.35.16.72.16,1.12-.02.58-.41.91-.99.86-.44-.02-.8-.19-1.08-.41-.03-.69-.06-1.33-.09-1.98.61.13,1.26.27,2.01.41Zm-1.29-1.48c.08-.19.14-.38.19-.55.19-.02.38-.03.58-.06.05.28.06.57.02.82-.25-.02-.52-.09-.79-.2Zm1.18-2.06c-.61.39-1.24.39-1.92.17.91-.72,1.79-1.48,2.64-2.25h.06c.16.83-.17,1.66-.79,2.07Zm-13.84,5.94c-1.15.58-1.77.41-2.87.24-.09.03-.17.05-.27.08-2.78-2.26-5.56-4.49-8.43-6.64.24-.75.52-1.52.91-2.31,4.62,1.98,9.14,4.11,13.44,6.6-.11.08-.24.16-.36.24-.55.79-1.6,1.38-2.42,1.81Zm1.85.91c-.2.19-.41.36-.61.52-.25.06-.5.09-.77.16-.03-.06-.05-.13-.06-.19.46-.2.9-.42,1.33-.64.03.06.08.11.11.16Zm-16.32,5.09s.02-.03.03-.03c1.15-.19,2.28-.41,3.41-.66-.25.64-.64,1.15-1.34,1.37-.71.24-1.55-.03-2.1-.68Zm1.02,1.92c-.03.69-.6,1.35-1.24,1.51-.64.14-1.23-.14-1.52-.71-.19-.36-.2-.74.05-1.05.22-.3.49-.55.77-.86.6.58,1.24.93,1.95,1.12Zm4.99-5.94c-.46.94-1.79.8-2.61.3-.16-.08-.33-.16-.49-.22-.16-.61-.28-1.24-.39-1.88,1.16.58,2.32,1.15,3.5,1.68-.03,0-.05.02-.08.02.02.03.05.06.06.11Zm-3.64,5.94c.5.38,1.02.77,1.63,1.24-.09.31-.17.71-.35,1.05-.25.53-.75.66-1.27.36-.38-.2-.63-.52-.8-.83.28-.64.53-1.24.79-1.82Zm1.12-.66c.16-.13.28-.27.41-.41.17.08.36.14.55.19-.08.28-.19.53-.33.74-.22-.13-.44-.3-.63-.52Zm.16-1.99c1.15-.27,2.26-.57,3.36-.9.02.02.03.02.05.03-.22.82-.88,1.43-1.62,1.52-.71.09-1.27-.19-1.79-.66Zm2.09,1.88c.49.41.96.83,1.49,1.3,0,.36-.11.75-.35,1.1-.35.49-.85.6-1.3.24-.31-.24-.55-.57-.77-.82.35-.68.64-1.27.93-1.82Zm1.23-.58c.57-.47.99-1.07,1.27-1.85.38.16.74.27,1.07.44.36.19.5.52.5.93-.03.64-.44,1.15-1.07,1.3-.66.14-1.46-.2-1.77-.82Zm2.04-5.58s-.05-.02-.06-.03c-.11-.03-.22-.08-.31-.14-2.14-.93-4.22-1.93-6.3-2.98,0-.75.03-1.54.14-2.37.03-.17.08-.36.11-.53,1.87,1.3,3.69,2.67,5.47,4.13.55.46,1.08.91,1.62,1.37.22.05.31.14.3.25,0,0,.02.02.03.02-.02.02-.03.02-.05.02-.05.14-.24.27-.5.31-.14.02-.28,0-.42-.05l-.02.02Zm-4.26-11.31c.13-.22.28-.44.42-.68,4.3,2.04,8.72,3.74,13.26,4.88v.02c.77.19,2.28.79,2.29,1.59v.02c-.02.8-1.04,1.37-1.74,1.15-.02,0-.02.02-.02.02-.02-.02-.03-.02-.05-.03-.05,0-.08-.03-.11-.06-4.48-2.61-9.22-4.84-14.06-6.89Zm1.55-2.28c.88-1.16,1.88-2.36,3.05-3.55.33-.36.69-.71,1.04-1.07.17.08.35.16.52.24,1.15,2.4,2.45,4.63,3.86,6.58.41.55.82,1.08,1.24,1.6-3.3-1.01-6.53-2.31-9.71-3.8Zm10.73.06c-1.48-2.01-2.86-4.46-4.07-7.21.63-.61,1.29-1.24,1.96-1.87,1.01,2.98,2.21,5.64,3.56,7.88,1.71,2.91,3.55,5.15,5.2,6.88-.02.03-.03.05-.06.06-.02.36-.28.6-.53.49-.05.05-.09.09-.14.14-.02-.02-.03-.03-.05-.03-1.81-1.54-3.86-3.57-5.87-6.34Zm5.92,10.16c.8.27,1.52.3,2.23.16.28.63.06,1.48-.46,1.88-.52.41-1.16.42-1.68.03-.33-.25-.49-.57-.41-.97.06-.36.19-.71.31-1.1Zm.49-1.13s0-.03.02-.05c.94-.66,1.87-1.37,2.78-2.07.06.69-.08,1.3-.6,1.82-.53.52-1.43.64-2.2.3Zm-2.84-12.94c-1.04-1.66-1.96-3.57-2.8-5.62l3.58,2.95c.25.55.49,1.08.75,1.6,1.52,3.09,3.35,5.4,5.06,7.05l.02.02c-.05.06-.09.11-.14.16-.03.17-.11.35-.28.49-.03,0-.06-.03-.09-.05-.05.05-.08.11-.13.16t-.03-.02c-1.93-1.49-4.05-3.66-5.94-6.74Zm13.62-21.67l-.03-.05c-.96-.08-1.9-.17-2.83-.28.05-.05.08-.11.13-.17h.03c.03-.06.09-.13.13-.19.47-.79,1.04-1.55,1.49-2.29.17.68.53,1.32.8,1.98.06.14.09.28.14.44.05.08.09.17.14.25h.06c.03.09.08.2.13.3h-.03v.02s-.05-.02-.06-.03c-.03,0-.06,0-.11-.02,0,.02.02.03.02.05Zm.99,1.98c.39,1.08.71,2.06.97,2.95-2.78-.35-5.56-.75-8.31-1.21.69-.75,1.35-1.51,1.98-2.25,1.77.22,3.56.38,5.36.5Zm1.4,4.4l.86,3.09.05.02c-3.35.52-6.71.58-10.07.28-.3-1.48-.53-3.08-.71-4.82.02,0,.02-.02.02-.02,3.27.55,6.55,1.02,9.85,1.44Zm1.52,4.93c.11.58.19,1.15.28,1.73-3.05,1.22-6.96,1.49-9.94.52-.2-.58-.39-1.18-.57-1.82,3.41.27,6.83.13,10.22-.42Zm-8.76,14.28c-.11.14-.27.28-.42.36-.08.09-.13.19-.2.25l-.2-.13-.02-.02c-.09,0-.19-.03-.27-.05-1.38-.38-2.98-2.62-4.07-4.71l5.18,4.29Zm-5.92-11.15c-.58-1.44-1.07-2.97-1.49-4.6.47-.44.91-.86,1.38-1.33.25-.25.49-.5.74-.77.46,3.13,1.15,5.95,2.15,8.37.14.33.28.66.42.97l-3.2-2.64Zm5.67,18.72c.61.17,1.23.35,1.92.53.14.33.22.72.16,1.15-.11.58-.5.9-1.08.77-.38-.08-.72-.27-1.04-.39.02-.77.03-1.43.05-2.06Zm.83-1.05c.31-.68.44-1.38.36-2.21.41-.03.77-.08,1.15-.06.41,0,.69.25.85.61.27.6.11,1.23-.39,1.63-.52.42-1.4.44-1.96.03Zm10.54-73.15c.06-.41.09-.79.19-1.13.11-.39.39-.63.8-.71.63-.13,1.21.17,1.49.75.3.61.13,1.46-.39,1.92-.6-.44-1.26-.74-2.09-.83Zm6.38,5.36c-.69-.13-1.33-.24-1.95-.36.25-.57.52-1.16.85-1.87.33.03.72.02,1.1.09.58.14.8.6.64,1.16-.13.41-.38.74-.64.97Zm-.25,3.47c-.31.27-.68.36-1.05.19-.33-.14-.63-.35-.99-.55.42-.72.63-1.41.64-2.15.68-.13,1.46.27,1.74.88.28.58.14,1.23-.35,1.63Zm-.6-7.37c-.16.35-.42.64-.61.93-.75-.19-1.38-.35-1.99-.5.3-.57.61-1.12.94-1.74.35-.06.75-.06,1.16.11.53.22.75.68.5,1.21Zm-1.62,1.87c-.08.25-.2.49-.38.72-.16-.11-.33-.22-.49-.3.03-.19.05-.39.06-.58.3.02.57.06.8.16Zm-52,77.22c.14.55.27,1.02.39,1.46-.14-.05-.28-.08-.42-.11-.14-.33-.28-.69-.42-1.08-.39-1.12-.86-2.5-1.24-4.18-.47-2.14-.77-4.76-.52-7.84.09-1.07.27-2.17.52-3.28.39-1.74.97-3.53,1.74-5.28,1.27-2.89,3.02-5.65,5.01-8.28,4.02-5.26,9.03-9.97,14.12-14.92,2.7-2.61,5.29-5.17,7.65-7.77.11-.09.2-.2.28-.3,2.03-2.21,3.88-4.46,5.5-6.78,3.63-5.09,5.97-10.55,7-15.47.46-2.09.69-4.04.83-5.81l1.05-.85c.06,2.03,0,4.37-.36,6.96-.71,5.29-2.91,11.53-6.56,17.2-1.04,1.63-2.17,3.22-3.38,4.76-.08.11-.16.2-.24.3-2.98,3.78-6.41,7.35-9.99,10.82-5.15,4.99-10.15,9.42-14.12,14.13-4,4.65-6.77,9.82-7.52,14.73-.79,4.88.03,8.97.68,11.59Zm-31.55-11.17c-3.78-5.01-7.48-11.03-10.27-17.68-2.83-6.58-4.68-13-6.23-18.72-.35-1.27-.68-2.51-.99-3.71-.03-.11-.06-.2-.08-.3-1.12-4.13-2.14-7.85-3.2-11.09-.6-1.87-1.21-3.55-1.81-5.07v-.02c.09-.28.2-.55.31-.83.03-.09.06-.17.09-.27.03-.09.06-.19.09-.28t.02.02c.93,1.74,1.92,3.77,2.91,6.11,1.44,3.33,2.84,7.21,4.27,11.43.03.09.06.2.09.3.38,1.12.75,2.25,1.13,3.41,1.87,5.7,3.85,11.84,6.56,18.16,5.2,12.45,12.99,22.52,18.96,29.45.2.14.38.3.44.52v.02c.02.06.06.11.05.19-.49-.14-1.21-.13-1.82-.22h-.02c-.27-.05-.5-.11-.69-.22-.14-.08-.3-.22-.46-.38-.09-.11-.19-.24-.28-.36-2.84-2.89-5.98-6.33-9.08-10.44Zm6.09,11.18c-.02.06-.03.13-.05.19-.28-.06-.53-.09-.79-.16-.2-.16-.39-.33-.61-.52.05-.05.08-.09.13-.16.44.22.88.44,1.32.64Zm-10.3-3.61c.72.14,1.44.11,2.25-.16.11.39.24.74.31,1.1.08.41-.09.72-.41.97-.52.39-1.18.38-1.68-.03-.53-.41-.75-1.26-.47-1.88Zm-.44-1.59c-.52-.52-.66-1.13-.6-1.82.9.71,1.84,1.41,2.78,2.07v.05c-.77.35-1.65.22-2.18-.3Zm-4.37-8.64l.75-.6c2.5,2.25,5.01,4.44,7.57,6.61.02,0,.02.02.02.02.69.94,1.43,1.84,2.23,2.67.38.44.71.88,1.08,1.32.52.39.97.82,1.07,1.21.02.05.03.08.03.11-1.24.06-3.08-1.21-4.33-2.37-.27-.19-.55-.36-.82-.57-2.67-2.01-6.14-5.86-7.6-8.4Zm3.6,9.63c-.03.64-.06,1.29-.09,1.98-.28.22-.66.39-1.08.41-.6.05-.99-.28-.99-.86,0-.39.09-.77.14-1.12.77-.14,1.41-.28,2.03-.41Zm-1.52-.86c-.03-.25-.02-.53.03-.82.19.03.38.05.58.06.05.17.11.36.19.55-.28.11-.53.19-.8.2Zm-.38-2.26c-.63-.41-.96-1.24-.8-2.07h.06c.86.77,1.74,1.52,2.65,2.25-.68.22-1.3.22-1.92-.17Zm-2.72,1.51c.68-.19,1.3-.36,1.92-.53.02.63.03,1.29.05,2.06-.31.13-.68.31-1.04.39-.58.13-.99-.19-1.08-.77-.06-.42.02-.82.16-1.15Zm-.88-1.62c-.5-.41-.66-1.04-.41-1.63.17-.36.46-.61.86-.61.36-.02.74.03,1.15.06-.08.83.05,1.54.35,2.21-.55.41-1.43.39-1.95-.03Zm4.19-8.23l.27-.24c.24.36.5.75.77,1.18-.35-.31-.69-.63-1.04-.94Zm-22.57-35.81s.08-.08.13-.11c.16-.16.33-.27.53-.39.08.14.14.27.24.39.02.03.05.08.08.11-.05.06-.09.13-.14.19-.06.09-.11.19-.17.3-.17-.09-.33-.19-.46-.3-.08-.06-.14-.13-.2-.19Zm3.63-12.72c.09-.24.24-.47.35-.72.06.03.13.06.19.09-.11.47-.22.94-.33,1.43h-.19c-.02-.28-.03-.55-.02-.8Zm.52,11.23c.13-.55.24-1.07.33-1.57.66,1.01,1.35,1.99,2.07,2.95.06.09.14.2.22.3.91,1.21,1.85,2.4,2.84,3.55l.35,1.29c.33,1.26.69,2.53,1.07,3.82-2.34-2.69-4.43-5.53-6.05-8.65-.06-.09-.11-.19-.16-.3-.24-.46-.46-.91-.68-1.38Zm-.82-20.4c.28-.61,1.05-1.01,1.74-.88.02.74.2,1.43.64,2.15-.36.2-.68.41-1,.55-.38.17-.74.08-1.04-.19-.5-.41-.63-1.05-.35-1.63Zm-.55-2.81c-.17-.57.06-1.02.63-1.16.38-.08.77-.06,1.12-.09.31.71.58,1.3.85,1.87-.63.13-1.26.24-1.95.36-.28-.24-.52-.57-.64-.97Zm2.09-1.99c-.19-.28-.44-.58-.61-.93-.25-.53-.03-.99.52-1.21.39-.17.8-.17,1.15-.11.35.63.64,1.18.94,1.74-.6.16-1.24.31-1.99.5Zm14.2,26.89c.05.14.11.28.16.42,2.04,5.51,4.05,11.59,6.44,17.78,2.36,6.17,5.29,11.79,8.42,16.71,3.13,4.88,6.5,8.97,9.41,12.39,1.26,1.46,2.39,2.78,3.42,4,.31.2.63.42.8.72.03.08.09.14.11.22-.6.41-1.21.16-1.7-.27-.05,0-.08-.02-.13-.02-1.1-1.04-2.29-2.18-3.6-3.44-3.19-3.14-6.99-7.08-10.57-12.11-3.57-4.98-6.93-10.99-9.39-17.48-2.5-6.45-4.3-12.56-6.02-18.09-.09-.28-.17-.57-.27-.85-.03-.11-.06-.2-.08-.3-1.57-5.06-3.05-9.6-4.51-13.4-1.04-2.81-2.12-5.17-3.08-7.1,0-.02.02-.03.03-.05.05-.11.09-.22.16-.33.08-.17.16-.33.22-.49.02,0,.02.02.02.02,1.27,1.93,2.75,4.41,4.22,7.48,1.92,3.91,3.88,8.62,5.81,13.87.03.09.08.19.11.3Zm-10.82-24.94c-.36-.6-.5-1.21-.25-1.88.25-.69,1.01-1.21,1.84-1.23.02.02.02.03.02.05-.57,1.01-1.1,2.03-1.6,3.06Zm-.53-3.5c-.53-.46-.71-1.3-.41-1.92.3-.58.86-.88,1.51-.75.39.08.69.31.79.71.09.35.13.72.2,1.13-.85.09-1.51.39-2.09.83Zm.44,3.71c-.5,1.05-.97,2.1-1.41,3.19-.02,0-.03,0-.03.02-.52-.69-.58-1.59-.19-2.21.38-.61.93-.9,1.63-.99Zm-.17,5.09c-.05.08-.08.16-.11.24.03-.08.06-.17.09-.25l.02.02Zm-1.29-6.45c0,.19.03.39.06.58-.17.08-.33.19-.5.3-.16-.24-.3-.47-.36-.72.24-.09.5-.14.8-.16Zm-.61,11.64c-.03.16-.08.31-.13.49.16,2.75.9,4.98,1.49,7.74-.11-.13-.2-.25-.31-.38-3.3-4.13-2.01-6.96-1.21-8.31,0,.31.02.6.03.9.05-.14.08-.3.13-.44Zm-1.02,7s.02-.06.02-.11c.97,1.35,1.95,2.69,2.94,4,.13.47.25.93.39,1.41-.05-.05-.09-.11-.13-.17.08.22.17.44.25.66.02.06.03.11.05.17.08.28.16.57.2.86-1.4-.93-4.77-5.06-4.22-6.45l-.19.17c.09-.35.27-.63.53-.82.05.09.11.17.16.27Zm-2.48,7.16c-.58-.38-.97-.88-1.05-1.6-.06-.74.38-1.52,1.13-1.9.02,0,.03.02.05.03-.08,1.15-.11,2.31-.13,3.47Zm-2.01-2.94c-.68-.17-1.19-.88-1.19-1.55.02-.64.41-1.16,1.02-1.32.39-.09.75-.03,1.02.28.24.28.42.6.68.93-.71.47-1.19,1.02-1.52,1.66Zm-.3,1.32c-.49.39-.99.82-1.57,1.32-.3-.17-.66-.33-.96-.57-.46-.38-.47-.9-.08-1.33.3-.31.66-.5,1-.58.57.41,1.08.79,1.6,1.16Zm-2.53,2.7c.3-.24.66-.39.96-.57.58.49,1.08.91,1.57,1.32-.52.38-1.04.75-1.6,1.16-.35-.09-.71-.28-1-.6-.39-.44-.38-.94.08-1.32Zm2.83,2.06c.33.66.82,1.21,1.52,1.66-.25.35-.44.66-.68.94-.27.3-.63.38-1.02.28-.61-.17-1.01-.68-1.02-1.33,0-.68.52-1.37,1.19-1.55Zm.96-1.33c.08-.68.42-1.15.94-1.51.03-.05.08-.06.11-.09v.09c.02,1.15.05,2.26.13,3.38l-.05.05c-.75-.39-1.19-1.16-1.13-1.92Zm1.81-.77c.05-.19.09-.35.14-.52,2.29,4.3,5.39,8.15,8.87,11.72.69,2.17,1.43,4.38,2.26,6.61-1.92-1.7-3.77-3.44-5.51-5.28-.03-.13-.11-.25-.28-.35-.03-.02-.06-.05-.11-.06-2.25-2.42-4.3-4.96-6.03-7.73.03-1.6.25-3.08.66-4.4Zm38.7,53.87c.3.79.72,1.38,1.29,1.85-.33.61-1.13.96-1.77.82-.64-.16-1.05-.66-1.07-1.3-.02-.41.14-.74.5-.93.33-.17.68-.28,1.05-.44Zm2.5,2.43c.28.55.58,1.15.94,1.82-.24.25-.47.58-.77.82-.47.36-.97.25-1.3-.24-.25-.35-.35-.74-.36-1.1.53-.47,1.02-.9,1.49-1.3Zm.3-1.22c-.74-.09-1.4-.71-1.6-1.52t.03-.03c1.12.33,2.23.63,3.36.9-.5.47-1.07.75-1.79.66Zm1.54.93c.13.14.27.28.42.41-.2.22-.41.39-.63.52-.14-.2-.25-.46-.35-.74.2-.05.38-.11.55-.19Zm1.54,1.07c.25.58.5,1.18.77,1.82-.16.31-.42.63-.8.83-.5.3-1.01.17-1.27-.36-.17-.35-.24-.74-.35-1.05.63-.47,1.15-.86,1.65-1.24Zm.25-1.24c-.68-.22-1.07-.72-1.32-1.37,1.12.25,2.26.47,3.41.66.02,0,.02.02.03.03-.55.64-1.41.91-2.12.68Zm3.05.13c.28.31.55.57.77.86.24.31.24.69.05,1.05-.3.57-.9.85-1.52.71-.66-.16-1.23-.82-1.24-1.51.71-.19,1.35-.53,1.95-1.12Zm-1.04-6.78c-1.3-1.21-2.4-2.5-3.5-3.85-.33-.33-.66-.68-1.01-1.04-3.05-3.28-6.41-7.54-9.58-12.63-3.17-5.07-6.14-10.93-8.72-17.17-2.18-5.31-4.08-10.49-5.76-15.23-.03-.09-.06-.19-.09-.3-.25-.68-.49-1.35-.72-2.01-1.92-5.37-3.74-10.15-5.5-14.1-1.62-3.71-3.22-6.64-4.46-8.73.03-.03.05-.06.06-.09.02-.03.03-.05.05-.08.06-.11.14-.24.2-.35,1.54,1.96,3.55,4.85,5.65,8.65,2.2,3.91,4.46,8.73,6.71,14.09l1.07,2.62.13.3,5.86,14.4c2.5,6.06,5.15,11.73,7.93,16.73,2.78,4.99,5.67,9.31,8.34,12.75,2.98,3.86,5.61,6.64,7.33,8.37h-.08l.02.02c.06.11.09.22.09.35-.47.17-1.04-.05-1.6-.42-.94-.66-1.88-1.79-2.42-2.28Zm-38.29-87.09c.69-.38,1.44.06,1.44.74,0,.28-.06.58-.11.91-.52-.11-.97-.22-1.51-.33.06-.47.13-.93.17-1.32Zm-.13-3.55c-.02-.25.09-.42.33-.5.42-.14.86-.11,1.3-.09.08.49.16.93.24,1.46-.36.03-.66.08-.97.08-.61,0-.86-.3-.9-.94Zm.99,2.47c.38-.14.8-.3,1.26-.46.22.49.42.91.64,1.4-.31.11-.58.24-.86.3-.66.16-1.24-.49-1.04-1.24Zm9.11-9.63c-.05-.33-.14-.71-.14-1.1,0-.58.39-.91.99-.88.42.03.8.2,1.08.41.03.71.06,1.35.09,1.98-.61-.13-1.26-.25-2.03-.41Zm1.3,1.49c-.08.19-.14.36-.19.55-.2,0-.39.03-.58.06-.05-.3-.06-.57-.03-.82.27.02.52.09.8.2Zm-1.18,2.06c.61-.41,1.24-.41,1.92-.19-.91.72-1.79,1.48-2.65,2.26-.02,0-.03-.02-.06-.02-.16-.82.17-1.66.8-2.06Zm39.37-9.06c.33-.42.85-.68,1.41-.79.27,1.65,1.37,3.3,2.25,4.57.94,1.37,2.1,2.59,3.33,3.71.85.77,1.87,1.27,2.81,1.92.11.41.22.83.31,1.26.11.42.19.85.28,1.27-5.95-2.69-10.46-6.89-10.81-11.86.17.02.33.02.49.02l-.08-.09Zm22.33,2.56s0,.02.02.02c.17.38.36.75.53,1.15,2.17,4.62,4.11,10.51,5.43,17.21.41,2.09.75,4.26,1.04,6.47l-3.16,2.58c-.24-2.95-.53-5.83-.93-8.54-.93-6.5-2.37-12.25-4.04-16.91-.38-1.04-.75-2.01-1.13-2.95.24.08.44.17.66.27.24.09.46.19.68.28.3.14.6.28.9.44Zm-.35-.83c.02-.06.03-.13.06-.2.27.06.52.11.77.17.2.16.41.33.61.5-.03.06-.08.11-.11.17-.44-.22-.88-.44-1.33-.64Zm11.53,4.19c.03-.63.06-1.27.09-1.98.28-.2.64-.38,1.08-.41.58-.03.97.3.99.88,0,.39-.11.77-.16,1.1-.75.16-1.4.28-2.01.41Zm1.49,1.7c-.2-.03-.39-.06-.58-.06-.05-.19-.11-.36-.19-.55.27-.11.53-.19.79-.2.05.25.03.52-.02.82Zm.41,1.44c.61.39.94,1.24.79,2.06-.02,0-.03.02-.06.02-.85-.79-1.73-1.54-2.64-2.26.68-.22,1.3-.22,1.92.19Zm1.63,9.2c-.08-2.01-.24-3.33-.31-3.88.02,0,.03.02.05.03.16.53.47,1.79.75,3.74.09.69.19,1.51.24,2.42l-.77.63c.06-1.1.08-2.09.05-2.94Zm.36-6.91c.08-.83-.05-1.55-.36-2.21.57-.42,1.44-.39,1.96.03.5.41.66,1.04.39,1.62-.16.38-.44.61-.85.63-.38.02-.74-.03-1.15-.06Zm.72-3.8c-.69.19-1.3.36-1.92.53-.02-.63-.03-1.29-.05-2.06.31-.13.66-.31,1.04-.39.58-.13.97.19,1.08.77.06.42-.02.82-.16,1.15Zm-4.05,4.82c.31.3.55.68.64,1.04.02.08.05.16.06.22-.25.06-.5.09-.75.14-.33.05-.64.09-.97.14-1,.33-2.03.63-3.13.82-.17-.66-.36-1.32-.55-1.96h-.05s.03-.02.05-.03c-.02-.05-.03-.09-.05-.14.09,0,.19-.02.3-.02,1.21-.72,3.68-1.68,4.44-.2Zm-2.59,9.42c-.03-.24-.06-.49-.11-.72l-.14-.74c-.05-.25-.11-.52-.17-.77,1.18-.22,2.32-.5,3.44-.85.02.9,0,1.77-.05,2.67-.99.16-1.98.3-2.97.41Zm2.78,1.59v.03l-2.21,1.81c-.08-.5-.16-.99-.24-1.49.82-.09,1.63-.2,2.45-.35Zm-3.61-5.72c-.08-.36-.16-.71-.24-1.05,1.35-.25,2.64-.61,3.85-1.07.05.3.08.69.13,1.18-1.19.41-2.45.71-3.74.94Zm-.57,17.17c-1.24-.58-2.47-1.13-3.68-1.65-.02-.09-.02-.19-.02-.3.36.17.71.36,1.08.5.49.2.97.39,1.48.58l.99-.82c.05.57.09,1.12.14,1.68Zm3.25-26.09c-.91-.72-1.84-1.41-2.78-2.07-.02-.02-.02-.05-.02-.06.77-.33,1.66-.2,2.2.31.52.5.66,1.12.6,1.82Zm-1.05-3.41c-.71-.14-1.43-.11-2.23.16-.13-.41-.25-.75-.31-1.1-.08-.41.08-.74.41-.97.52-.39,1.16-.38,1.68.02.52.42.74,1.27.46,1.9Zm-1.07,5.14h-.2s.05.05.08.06c-.79.06-1.57.08-2.36.06-.02-.05-.03-.09-.05-.14h-.24c-.55-.71-1.52-2.86-1.98-4.05.13.06.25.14.38.2,1.6.9,3.61,2.21,4.37,3.86Zm-7.82,13.11c.36,2.76.57,5.65.64,8.62-1.18-.46-2.34-.88-3.47-1.29-.02-2.42-.08-4.82-.25-7.1-.53-6.77-1.87-12.8-3.55-17.68-.74-2.2-1.52-4.16-2.29-5.89-.02,0-.02-.02-.02-.02.33.05.66.09.99.16.06.02.14.02.2.03.13.02.25.03.38.05,0,.02.02.03.02.03.8,1.44,1.62,3.06,2.4,4.87,2.17,4.87,4.04,11.12,4.95,18.22Zm-5.18,6.53c-1.08-.36-2.15-.69-3.2-1.02,0-.38,0-.79-.02-1.16-.13-6.85-.77-12.99-1.98-18.01-1.02-4.22-2.42-7.6-3.69-10.05h.66c.08.02.17.02.27.02,1.49,2.29,3.16,5.45,4.51,9.49,1.73,5.1,2.86,11.51,3.35,18.56.05.71.08,1.46.11,2.18Zm-2.87-31.71c-.28-.8-.71-1.38-1.27-1.85.31-.61,1.12-.97,1.77-.82.63.16,1.04.66,1.07,1.29,0,.41-.14.75-.5.94-.33.16-.69.28-1.07.44Zm-2.5-2.43c-.28-.57-.58-1.15-.93-1.84.22-.24.46-.57.77-.8.46-.36.96-.25,1.3.22.24.36.35.75.35,1.12-.53.46-1.01.88-1.49,1.3Zm-.3,1.23c.74.09,1.4.71,1.62,1.52-.02,0-.03.02-.05.02-1.1-.33-2.21-.63-3.36-.88.52-.49,1.08-.75,1.79-.66Zm-1.54-.93c-.13-.14-.25-.28-.41-.41.19-.22.41-.41.63-.53.14.22.25.47.33.75-.19.05-.38.11-.55.19Zm-1.52-1.07c-.25-.58-.5-1.18-.79-1.82.17-.31.42-.63.8-.85.52-.28,1.02-.16,1.27.36.17.35.25.74.35,1.07-.61.46-1.13.86-1.63,1.24Zm-.27,1.24c.69.22,1.08.71,1.34,1.37-1.13-.25-2.26-.47-3.41-.66-.02-.02-.03-.03-.03-.05.55-.64,1.4-.9,2.1-.66Zm-3.03-.14c-.28-.3-.55-.55-.77-.85-.25-.33-.24-.69-.05-1.05.3-.58.88-.85,1.52-.71.64.14,1.21.82,1.24,1.51-.71.17-1.35.52-1.95,1.1Zm-.8,3.69s.03.11.05.17c.47.3.88.64,1.18,1.04.05.06.11.11.16.17.64.93,1.21,2.31,1.63,3.75,0,.02,0,.05.02.06l.02.02c.25.68.52,1.43.77,2.21-.11-.08-.24-.14-.36-.22-1.08-.64-1.98-1.71-2.81-2.65-1-1.12-2.87-3.42-3.24-5.36.75.11,1.51.36,2.2.72.13.03.27.05.39.08Zm5.48,14.31c.11.61.2,1.26.3,1.9-4.74-1.49-9.58-3.93-13.05-7.35-2.75-2.72-4.66-6.03-5.04-9.97l-.25-.06c.99-.82,3.86-.42,4.44.9.09.02.19.05.28.06.02,1.1.22,2.17.57,3.2,1.62,4.88,6.61,8.86,12.75,11.32Zm-12.75-2.83c3.77,3.14,8.59,5.39,13.3,6.8.11.96.2,1.95.28,2.95-2.01-.49-3.96-1.18-5.83-2.25-2.75-1.55-5.37-3.52-7.76-5.8-2.81-2.69-5.29-5.8-7.22-9.16.14-1.16.31-2.21.49-3.11.86,4.26,3.39,7.76,6.74,10.55Zm0,4.18c1.71,1.54,3.53,2.94,5.42,4.21,2.61,1.74,5.39,2.8,8.29,3.41.05.72.08,1.44.11,2.18-2.95-.28-8.18-3.08-10.24-3.94,2.25,1.35,7.18,4.27,10.27,4.98.02.44.03.86.03,1.32-1.05-.13-2.09-.27-3.09-.46-1.02-.3-2.06-.57-3.06-.83-2.65-.88-5.21-2.18-7.73-4.19-.06-.03-.11-.08-.17-.13-2.67-2.15-5.07-4.82-7.13-7.77-.06-.75-.11-1.48-.14-2.21,1.98,2.25,5.01,5.4,7.44,6.69.11.06.2.13.31.17-.11-.08-.22-.16-.31-.24-2.8-2.03-5.34-5.59-6.38-7.08-.38-.57-.77-1.16-1.15-1.76,0-.94,0-1.87.05-2.73,2.1,3.09,4.65,5.91,7.48,8.39Zm-.58,8.67c-1.44-.39-2.86-.79-4.24-1.19-.44-.13-.86-.25-1.29-.39-.31-1.57-.57-3.09-.77-4.55,1.41,1.73,2.95,3.33,4.6,4.77.55.49,1.13.94,1.7,1.37Zm-6.91-28.87c-.22.3-.49.55-.77.85-.6-.58-1.24-.93-1.95-1.1.02-.69.58-1.37,1.24-1.51.63-.14,1.23.13,1.52.71.19.36.19.72-.05,1.05Zm-1.7,1.65s-.02.03-.03.05c-1.15.19-2.29.41-3.41.66.25-.66.64-1.15,1.32-1.37.71-.24,1.57.02,2.12.66Zm-1.26,14.46c.11,3.09.5,6.5,1.15,10.16-.94-.31-1.82-.63-2.69-.96-.31-3.33-.41-6.45-.28-9.3.24-5.69,1.35-10.08,2.37-12.91h.6c-.02.09-.05.16-.06.25-.68,2.92-1.32,7.32-1.08,12.75Zm-1.6-12.97c.06,0,.13-.02.19-.02,0,.02.02.02.02.02h-.2Zm.49-3.39c-.5-.38-1.02-.79-1.65-1.24.11-.33.17-.72.35-1.07.27-.52.77-.64,1.27-.36.38.22.64.53.8.85-.27.64-.52,1.24-.77,1.82Zm-1.12.66c-.16.13-.3.27-.42.41-.17-.08-.35-.14-.55-.19.09-.28.2-.53.35-.75.22.13.42.31.63.53Zm-.17,1.99c-1.13.25-2.25.55-3.36.88-.02,0-.02-.02-.03-.02.2-.82.86-1.43,1.6-1.52.72-.09,1.29.17,1.79.66Zm-1.93,21.78c-.93-.39-1.81-.8-2.62-1.22-.06-3.63.14-6.99.53-9.97.49-3.89,1.26-7.08,2.03-9.64.06-.02.13-.02.2-.03.09,0,.19-.02.28-.03.06,0,.14-.02.22-.02.03,0,.05,0,.08-.02.06,0,.11,0,.16-.02v.02c-.52,2.69-.99,6.06-1.16,10.05-.16,3.28-.08,6.94.28,10.88Zm-.16-23.67c-.47-.42-.96-.85-1.49-1.3.02-.36.11-.75.36-1.12.33-.47.83-.58,1.3-.22.3.24.53.57.77.8-.36.69-.66,1.27-.94,1.84Zm-1.21.58c-.57.47-.99,1.05-1.29,1.85-.38-.16-.72-.28-1.05-.44-.36-.19-.52-.53-.5-.94.02-.63.42-1.13,1.07-1.29.64-.16,1.44.2,1.77.82Zm12.44,29.78c1.21.36,2.45.71,3.71,1.05,5.17,1.4,10.7,2.73,16.65,4.49,4.81,1.43,9.67,3.09,14.45,5.28-.5.83-1.05,1.66-1.63,2.48-3.69-1.44-7.54-2.69-11.46-3.85-6.24-1.85-12.25-3.44-18-5.29-.9-.3-1.79-.6-2.67-.9-6.52-2.25-12.83-5.01-18.06-8.62-5.29-3.61-8.69-7.77-10.32-10.35-1.05-1.65-1.63-2.81-1.93-3.46.02-.02.05-.03.06-.05.39.64,1.15,1.82,2.4,3.44,1.9,2.5,5.32,6.09,10.11,8.94,4.76,2.89,10.51,5.03,16.69,6.83Zm-28.11-21.94c-.08.35-.2.69-.31,1.1-.8-.27-1.52-.3-2.25-.16-.28-.63-.06-1.48.47-1.9.5-.39,1.16-.41,1.68-.02.31.24.49.57.41.97Zm-.82,2.21v.06c-.94.66-1.88,1.35-2.78,2.07-.06-.71.08-1.32.6-1.82.53-.52,1.41-.64,2.18-.31Zm-.93,5.89c1.87,2.45,5.03,6.05,9.61,9.31,4.54,3.3,10.26,6.06,16.41,8.28,2.43.88,4.95,1.7,7.54,2.5,3.99,1.24,8.17,2.43,12.53,3.75,5.18,1.57,10.32,3.25,15.38,5.42-.6.79-1.26,1.59-1.93,2.4-3.89-1.41-7.95-2.65-12.14-3.93-4.71-1.43-9.34-2.83-13.84-4.41-2.31-.8-4.59-1.66-6.83-2.59-6.55-2.67-12.89-6.17-17.78-10.18-4.93-3.99-7.88-7.96-9.49-10.51-.75-1.21-1.27-2.15-1.62-2.81.03-.05.06-.08.09-.11.44.66,1.12,1.63,2.06,2.87Zm50.51,40.9s-.11.09-.16.14v-.44c0-.72-.02-1.43-.02-2.17.74.19,1.48.36,2.21.55-.55.53-1.12,1.05-1.71,1.62-.11.09-.22.19-.33.3Zm-3.11,1.65c-1.62-.49-3.22-1.04-4.79-1.65-.2-.09-.42-.19-.63-.3-.71-.33-1.41-.66-2.1-1.01-1.81-.88-3.67-1.85-5.56-2.87-.25-.93-.5-1.85-.75-2.76-.03-.09-.05-.19-.08-.28.03.02.05.02.08.03,3.74,1.43,7.43,2.58,10.92,3.39.93.2,1.88.41,2.84.63v.03c.02.97.02,1.92.05,2.84-.02.09-.02.2,0,.3,0,.55.02,1.1.03,1.65Zm-9.69,8.07c-.09-.52-.2-1.04-.31-1.57,1.12.44,2.23.86,3.35,1.27-.39.46-.79.9-1.18,1.33-.61-.35-1.24-.69-1.85-1.04Zm.55,2.59s-.02.03-.03.05c0-.03,0-.05-.02-.08.02.02.03.03.05.03Zm-1.22-5.75c-.35-1.54-.72-3.14-1.13-4.79,2.76,1.4,5.59,2.7,8.45,3.89-.9.86-1.77,1.76-2.61,2.67-1.59-.57-3.16-1.15-4.71-1.77Zm-8.51-6.86c-.93-3.47-1.84-6.89-2.7-10.24,1.4.68,2.8,1.3,4.18,1.9.75,2.72,1.54,5.48,2.29,8.34.02.03.02.06.03.09.02.06.03.14.05.2.06.19.11.39.16.58.25.94.49,1.88.72,2.83,1.02,4.1,1.88,8.17,2.51,12.14-.2.28-.42.58-.64.86-.66.94-1.27,1.88-1.87,2.81-.08.11-.14.2-.2.31-.16-.97-.33-1.96-.52-2.97-.93-4.96-2.21-10.18-3.66-15.55-.09-.35-.17-.68-.27-1.02-.03-.09-.06-.2-.08-.3Zm8.39.3c-.2-.09-.39-.19-.58-.3-.38-.17-.74-.36-1.1-.55-.03-.13-.06-.24-.09-.38-.03-.11-.08-.24-.11-.36.83.44,1.66.86,2.48,1.29.2.09.39.2.6.3.02,0,.02.02.03.02,2.58,1.29,5.32,2.58,8.17,3.78-.11.09-.22.2-.35.31-3.05-1.24-6.08-2.62-9.05-4.11Zm6.17-7.07c-3.17-.74-6.36-1.71-9.52-2.91-4.24-1.57-8.4-3.5-12.33-5.61-6.86-3.67-13.13-7.99-17.78-12.39-2.32-2.2-4.21-4.4-5.48-6.36-1.29-1.95-1.93-3.6-2.21-4.81-.09-.49-.16-.91-.19-1.27.09-.17.19-.35.3-.5.09.52.27,1.18.57,1.99.85,2.4,3.47,6.22,7.98,9.94,4.43,3.75,10.3,7.4,16.71,10.52,3.97,1.93,8.18,3.71,12.44,5.15,2.61.88,5.25,1.63,7.84,2.23,5.34,1.19,10.66,2.56,15.88,4.37-.75.82-1.55,1.65-2.4,2.51-3.8-1.05-7.74-1.98-11.79-2.87Zm-22.99,7.07c1.55,6.09,3.05,11.92,4.11,17.54,1.35,7,1.81,13.77.72,19.18-.42,2.21-1.08,4.08-1.84,5.69-.05-.06-.11-.14-.17-.22-.25-.33-.52-.71-.79-1.05.47-1.44.83-3.08,1.01-4.9.57-5.04-.27-11.2-1.88-17.87-1.37-5.65-3.19-11.81-4.9-18.36-.03-.09-.05-.19-.08-.3-.28-1.07-.57-2.15-.83-3.24-1.23-4.93-2.23-9.82-2.94-14.53,1.27.85,2.59,1.66,3.94,2.48.71,3.53,1.54,7.18,2.47,10.88.36,1.48.74,2.95,1.1,4.4.03.11.06.2.08.3Zm-2.58,30.41c-1.35-1.01-2.69-2.06-4-3.13-.08-.14-.16-.3-.25-.46,2.29,1.27,4.63,2.45,7.02,3.57.05.72.08,1.43.08,2.1-.96-.69-1.9-1.38-2.84-2.09Zm2.75,4.51c-.02.25-.03.52-.05.75-.06.5-.13.99-.2,1.46-.02-.02-.03-.03-.05-.05-.02.17-.03.33-.05.5-.02.11-.02.24-.03.36l-.03-.03s-.03-.03-.05-.05c-.74-.75-2.8-3.25-3.58-4.7-.66-.9-1.13-1.98-1.59-3,.25.22.53.46.82.69,0,.02.02.02.02.02.99.8,2.14,1.7,2.92,2.65.63.46,1.24.93,1.87,1.38Zm-11.26-17.07c-.58-1.32-1.16-2.69-1.74-4.08,3.17,2.15,6.41,4.24,9.63,6.33.68.44,1.35.88,2.03,1.32.47,2.18.83,4.19,1.07,6.06-.06-.03-.11-.06-.17-.09.03.19.06.36.09.53-1.84-.99-7.1-2.69-8.17-4.63-.11-.08-.22-.14-.35-.2-.41-.88-.83-1.79-1.26-2.72,2.72,1.15,5.48,2.39,8.28,3-3.25-1.19-6.38-3.49-9.41-5.51Zm-6.64-18.14c-.39-.27-.77-.57-1.16-.86l-.99-2.42c-.85-2.03-1.7-3.94-2.51-5.76,2.86,3.24,6,6.25,9.34,9.05.11.11.22.2.35.3,2.39,1.98,4.87,3.86,7.41,5.64.27,1.01.55,2.04.82,3.03.02.06.03.13.05.19-4.27-2.75-8.7-5.67-12.91-8.86-.13-.08-.27-.17-.39-.3Zm14.06,11.87c.66,2.43,1.29,4.79,1.84,7.05-.08-.06-.17-.11-.25-.17-4.1-2.65-8.17-5.34-12.16-8.15l-3.28-8.1c4.57,3.35,9.34,6.42,13.85,9.38Zm-16.51-39.86l-3.49-2.89c-.57-1.07-1.05-2.15-1.48-3.28.05.08.08.14.13.22,1.24,1.9,2.89,3.93,4.84,5.95Zm-4.63-17.02c-.61-.17-1.24-.35-1.92-.53-.14-.33-.22-.72-.16-1.15.09-.58.5-.9,1.08-.77.36.08.72.27,1.04.39-.02.77-.03,1.43-.05,2.06Zm-.85,1.05c-.3.66-.42,1.38-.35,2.21-.41.03-.79.08-1.15.06-.41-.02-.69-.25-.86-.63-.25-.58-.09-1.21.41-1.62.52-.42,1.4-.46,1.95-.03Zm15.86,30.78c.33,1.85.71,3.74,1.12,5.65-1.63-1.27-3.25-2.56-4.85-3.88-4.55-3.8-11.43-9.63-13.63-16.1l17.37,14.32Zm-17.78-20.92c0-.13,0-.22-.03-.33.06-.08.13-.17.19-.27.11.35.24.68.36,1.02l-.52-.42Zm7.96,19.87c3.63,3.55,7.57,6.82,11.67,9.88.17.69.31,1.37.49,2.06.19.77.38,1.54.58,2.29.02.09.05.2.06.3.25.93.49,1.84.74,2.73-1.21-.88-2.4-1.79-3.58-2.73-.13-.09-.25-.2-.38-.3-7.19-5.76-13.55-12.47-18.16-20.23-.14-.24-.3-.47-.44-.71-1.27-2.23-2.42-4.54-3.38-6.94-.03-.09-.09-.14-.13-.2.53-.69,1.07-1.43,1.62-2.18l.93.77c1.01,5.95,5.81,11.17,9.97,15.27Zm-11.86-20.5c-.06-.03-.13-.06-.19-.09.13-.25.22-.49.35-.72.19-.16.41-.31.63-.49.05.06.09.11.13.16-.3.38-.61.77-.91,1.15Zm38.89,83.13c-.49-.85-1.15-1.59-1.9-2.2,1.08-2.4,1.71-4.98,1.9-7.76l-.02.35c-.35,3.24.24,6.44.02,9.61Zm.5-27.2c-.96-6.53-2.64-13.57-4.7-20.9-.02-.09-.05-.19-.08-.3-.14-.52-.28-1.04-.44-1.55l-1.71-5.89c-.6-1.88-1.24-3.89-1.76-5.84-.03-.13-.06-.25-.09-.38.66.38,1.33.75,2.01,1.12.8.42,1.59.83,2.39,1.23.25.8.52,1.59.8,2.43.61,1.99,1.21,3.96,1.79,6.02.27.96.53,1.92.8,2.87.02.09.05.2.08.3,1.88,7.04,3.28,13.96,3.94,20.48.06.74.13,1.46.17,2.18-.96,1.76-1.77,3.52-2.47,5.25-.14-2.25-.38-4.59-.74-7Zm1.41,13.13c.63-2.65,1.7-5.43,3.11-8.23.22-.47.47-.94.72-1.41,1.08-1.99,2.32-3.99,3.71-5.94,3.64-5.12,8.29-10.13,13.4-14.48,1.46-1.32,2.89-2.64,4.26-3.97.11-.09.2-.19.3-.3,3.17-3.08,6.06-6.2,8.51-9.42,3.61-4.7,6.22-9.64,7.57-14.2.13-.38.22-.75.33-1.13l1.68-1.37c-.13.96-.3,1.95-.52,2.98-1.07,4.99-3.57,10.62-7.18,15.83-1.73,2.51-3.67,4.95-5.81,7.3-.08.09-.17.2-.27.3-2.23,2.45-4.66,4.82-7.19,7.1-5.07,4.33-9.52,8.86-13.22,13.52-2.2,2.8-4.1,5.64-5.56,8.45-.27.49-.5.96-.72,1.44-.66,1.37-1.21,2.7-1.63,4.04-.64,1.92-.99,3.74-1.15,5.42.03,4.24.93,7.73,2.78,11.67.02.06.05.11.08.17l.05.08.6,1.01.05.08s-.03.02-.05.02c-.03,0-.06,0-.08.02v.02l-.02-.02c-.22.06-.42.05-.63-.02-.49-.13-.93-.55-1.32-1.15-.91-1.4-1.48-3.6-1.48-4.6-.14-.53-.25-1.08-.35-1.6-.72-2.53-1.18-6.69.03-11.61Zm45.81-71.1c.09.05.17.11.27.17.11.53.24,1.18.36,1.93l-.44.35c-.05-.99-.13-1.81-.19-2.45Zm4.96-2.72c-.31,0-.63-.05-.99-.08.09-.53.16-.97.24-1.46.44-.02.88-.05,1.3.09.25.08.36.25.35.5-.05.64-.3.94-.9.94Zm.93,3.93c-.53.11-.99.22-1.51.33-.03-.33-.09-.63-.11-.91,0-.68.75-1.12,1.46-.74.05.39.09.85.16,1.32Zm-1.02-2.4c.2.75-.39,1.4-1.05,1.24-.28-.06-.55-.19-.86-.3.24-.49.42-.91.66-1.4.44.16.88.31,1.26.46Zm-1.9,7.62l.97-.8c-.09,2.2-.75,4.85-1.07,6.44.24-1.79.22-3.74.09-5.64Zm.3-4.48c-.06.03-.13.06-.19.09-.3-.38-.6-.77-.91-1.15.05-.05.09-.09.14-.16.22.17.42.33.63.49.11.24.22.47.33.72Zm-.44,10.4c-.02.24-.05.46-.09.68.02-.17.05-.41.09-.68Zm3.08-18.99c.08.38-.02.69-.27.82-.42.22-.9.28-1.4.31-.06-.5-.11-.96-.17-1.44.44-.16.86-.28,1.32-.24.33.03.46.19.52.55Zm-1.41-3.46c.35-.02.5.25.61.52.13.25.14.53-.09.75-.36.33-.8.49-1.27.66-.2-.47-.39-.9-.58-1.35.39-.31.82-.55,1.34-.58Zm-1.79-2.58c.28-.09.52.06.69.27.2.2.36.46.22.74-.24.47-.61.79-1.12,1.01-.31-.41-.61-.77-.91-1.16.33-.36.66-.69,1.12-.85Zm-2.58-1.92c.3-.3.61-.28.99,0,.36.27.46.53.25.91-.17.33-.42.63-.68,1.02-.46-.33-.85-.63-1.33-.97.28-.36.5-.69.77-.96Zm-2.2-1.84c.33-.28.6-.25.94.05.35.31.44.61.22.96-.2.31-.49.61-.77.96-.44-.38-.82-.71-1.24-1.08.31-.33.57-.63.85-.88Zm-2.47-1.74c.25-.19.52-.09.77.05.25.14.44.31.41.61-.05.49-.28.88-.58,1.29-.44-.2-.86-.41-1.32-.63.09-.55.31-.99.72-1.32Zm-3.08-.72c.17-.28.44-.33.72-.27.28.05.57.14.63.49.08.5-.05.97-.27,1.43-.49-.09-.94-.17-1.44-.27.06-.5.11-.96.36-1.38Zm-3.06.05c.08-.27.35-.42.74-.44.36-.02.53.08.64.38.14.44.13.88.06,1.35-.49.05-.94.09-1.44.16-.08-.52-.13-.97,0-1.44Zm5.29,3.28c1.43.68,2.54,1.51,3.41,2.54,1.21.61,2.26,1.52,3.25,2.76,2.21,2.69,2.54,6.85.11,10.22-1.07-1.24-2.17-2.43-3.33-3.58-.03-.05-.06-.09-.09-.14,1.3.13,2.32-.17,2.78-1.41.52-1.41-.02-2.47-1.21-3.25.06-.38.14-.75.16-1.12.11-1.59-1.1-2.62-2.59-2.31-.03-1.52-1.3-2.48-2.84-2.03-.35.09-.69.27-1.05.41-1.02-.99-2.18-1.29-3.44-.46-1.1.72-1.16,1.77-.77,3.02-.03-.02-.08-.03-.11-.03-1.38-.9-2.8-1.71-4.26-2.48,2.75-3.13,6.88-3.72,9.99-2.15Zm-7.46-3c.25-.08.44,0,.58.2.22.39.3.82.36,1.26-.46.19-.86.35-1.37.55-.11-.35-.22-.63-.28-.94-.14-.58.09-.9.71-1.07Zm-2.18,1.51c.22.33.47.72.72,1.12-.42.35-.79.63-1.21.96-.19-.28-.36-.52-.49-.79-.3-.6.19-1.32.97-1.29Zm-1.65.97c-.27.06-.57.06-.91.09v-1.54c.47-.05.93-.09,1.32-.13.52.6.27,1.43-.41,1.57Zm.24-4.22c.24.6.14.97-.41,1.24-.28.13-.58.22-.91.35-.16-.5-.28-.94-.42-1.41.39-.2.77-.42,1.21-.49.25-.03.44.08.53.31Zm-1.95-2.98c.3-.09.49-.02.71.27.22.31.27.63.09.86-.28.38-.68.64-1.12.88-.28-.42-.52-.8-.79-1.23.33-.33.66-.63,1.1-.79Zm-2.07-2.21c.3-.17.55,0,.77.19.22.17.36.41.24.72-.17.46-.5.79-.86,1.15-.38-.33-.72-.64-1.1-.96.22-.46.5-.86.96-1.1Zm-2.73-1.55c.22-.2.49-.17.74-.06.27.11.52.25.52.58,0,.52-.22.97-.57,1.38-.47-.24-.9-.44-1.33-.64.14-.47.3-.91.64-1.26Zm-3.16-.61c.14-.39.42-.5.9-.42.44.08.64.28.61.71-.02.38-.09.75-.16,1.21-.55-.09-1.04-.19-1.62-.3.09-.44.16-.83.27-1.19Zm-2.78-.69c.17-.39.44-.49.88-.38.44.13.66.36.61.77-.06.38-.17.75-.28,1.21-.57-.16-1.05-.3-1.59-.44.14-.44.24-.82.38-1.16Zm-2.97-.5c.13-.28.42-.31.71-.3.28.02.53.09.64.38.16.46.11.93.03,1.41h-1.48c-.14-.53-.13-1.02.09-1.49Zm-2.56.13c.28-.08.58-.11.79.17.28.41.36.9.38,1.4-.49.13-.93.25-1.41.38-.16-.47-.33-.91-.28-1.4.03-.33.25-.47.53-.55Zm-2.81,1.21c.33-.17.53-.16.75.06.33.33.5.74.64,1.18-.41.27-.8.5-1.23.77-.3-.41-.55-.82-.63-1.29-.06-.28.13-.55.46-.72Zm5.73,1.37c1.57,0,2.94.27,4.18.82,1.35.03,2.7.39,4.11,1.08,3.17,1.46,5.28,5.06,4.54,9.16-1.51-.68-3.05-1.27-4.62-1.81-.02-.02-.05-.03-.06-.05,1.21-.46,1.99-1.16,1.88-2.48-.14-1.49-1.1-2.21-2.51-2.4-.11-.38-.19-.74-.33-1.08-.6-1.48-2.14-1.88-3.35-.94-.69-1.37-2.26-1.66-3.44-.6-.27.24-.5.53-.77.83-1.35-.46-2.53-.22-3.3,1.07-.68,1.13-.28,2.12.63,3.05-.05.02-.09.02-.14.03-1.62-.2-3.25-.33-4.9-.38,1.12-4,4.59-6.34,8.07-6.3Zm-8.03.53c.19-.16.39-.19.61-.05.38.24.61.6.88.96-.33.36-.63.71-1.01,1.1-.24-.27-.47-.47-.66-.72-.38-.47-.3-.85.17-1.29Zm-1.9,2.94c.08-.25.3-.49.6-.63.35.22.72.46,1.13.71-.24.49-.44.9-.68,1.37-.28-.17-.55-.3-.79-.47-.13-.09-.22-.22-.27-.36-.08-.19-.08-.41,0-.61Zm0,2.42c.22.05.44.11.68.17-.02.06-.03.13-.05.2-.2,0-.42-.02-.63-.02h-.09c-.25,0-.49.02-.74.02-.02-.08-.03-.14-.05-.2.28-.08.53-.14.79-.19.03,0,.06.02.09.02Zm-.79-3.05c.72.31.85,1.18.31,1.6-.22.17-.49.3-.77.47-.24-.47-.44-.88-.69-1.37.41-.25.8-.49,1.15-.71Zm-1.92-2.36c.2-.14.41-.11.6.05.49.44.57.82.19,1.29-.2.25-.44.46-.68.72-.36-.39-.66-.74-.99-1.1.25-.36.5-.72.88-.96Zm-2.45-1.79c.24-.22.44-.24.75-.06.35.17.52.44.47.72-.09.47-.33.88-.63,1.29-.42-.27-.82-.5-1.24-.77.16-.44.33-.85.64-1.18Zm-2.83-1.1c.2-.28.5-.25.79-.17.28.08.5.22.52.55.05.49-.11.93-.27,1.4-.49-.13-.94-.25-1.41-.38,0-.5.08-.99.38-1.4Zm-3.13-.22c.09-.28.36-.36.63-.38.3-.02.58.02.72.3.22.47.24.96.08,1.49h-1.46c-.09-.49-.14-.96.03-1.41Zm-2.5.05c.42-.11.71-.02.86.38.16.35.24.72.38,1.16-.53.14-1.02.28-1.59.44-.09-.46-.22-.83-.27-1.21-.05-.41.16-.64.61-.77Zm-2.8.64c.46-.08.75.03.88.42.13.36.17.75.28,1.19-.58.11-1.08.2-1.62.3-.06-.46-.16-.83-.17-1.21-.02-.42.19-.63.63-.71Zm2.1,2.75c1.22-.55,2.59-.82,4.18-.82,3.49-.05,6.94,2.29,8.06,6.3-1.65.05-3.28.17-4.88.38-.05-.02-.09-.02-.14-.03.9-.93,1.3-1.92.63-3.05-.79-1.29-1.96-1.52-3.3-1.07-.27-.3-.5-.6-.79-.83-1.18-1.07-2.75-.77-3.42.6-1.21-.94-2.75-.53-3.35.94-.14.35-.22.71-.35,1.08-1.41.19-2.36.91-2.5,2.4-.13,1.32.66,2.03,1.88,2.48-.02,0-.02.02-.03.02.06-.02.11-.02.16-.03-.05.02-.11.03-.17.05,0,0-.02.02-.03.02-.09.03-.2.08-.3.11-.47,2.43-.88,5.37-1.08,8.83-.17,2.67-.2,5.61-.08,8.76-.09-.06-.2-.13-.31-.17-.75-.47-1.46-.94-2.12-1.43.13-2.69.36-5.21.71-7.51.47-3.17,1.1-5.84,1.74-8.06-1.07.39-2.14.8-3.17,1.27-.72-4.1,1.38-7.7,4.54-9.16,1.43-.69,2.76-1.05,4.13-1.08Zm-5.12-1.77c.27-.11.53-.14.74.06.35.35.52.79.64,1.26-.44.2-.86.41-1.32.64-.36-.41-.57-.86-.57-1.38-.02-.33.25-.47.5-.58Zm-2.76,1.81c.22-.19.49-.36.79-.19.44.24.72.64.96,1.1-.38.31-.74.63-1.12.96-.36-.36-.69-.69-.86-1.15-.11-.31.02-.55.24-.72Zm-1.99,2.29c.22-.28.41-.36.71-.27.42.16.75.46,1.1.79-.27.42-.52.8-.79,1.23-.46-.24-.85-.5-1.13-.88-.16-.24-.13-.55.11-.86Zm-1.24,2.72c.09-.24.27-.35.52-.31.46.06.83.28,1.21.49-.14.47-.27.91-.42,1.41-.33-.13-.63-.22-.91-.35-.55-.27-.64-.64-.39-1.24Zm-.19,2.65c.41.03.86.08,1.33.13,0,.55-.02,1.02-.02,1.54-.33-.03-.63-.03-.91-.09-.66-.14-.91-.97-.41-1.57Zm-1.24.6c.79-.03,1.29.69.99,1.29-.13.27-.31.5-.5.79-.41-.33-.77-.61-1.21-.96.27-.39.5-.79.72-1.12Zm-2.75-1.3c.13-.2.33-.28.57-.2.63.17.85.49.72,1.07-.08.31-.19.6-.3.94-.49-.2-.91-.36-1.37-.55.08-.44.14-.86.38-1.26Zm-2.97-.55c.09-.3.28-.39.64-.38.38.02.66.17.74.44.11.47.08.93-.02,1.44-.5-.06-.96-.11-1.44-.16-.05-.47-.08-.91.08-1.35Zm-2.4-.25c.28-.06.55-.02.71.27.25.42.3.88.36,1.38-.49.09-.94.17-1.43.27-.22-.46-.36-.93-.27-1.43.05-.35.35-.44.63-.49Zm8.45,5.72c.35-.19.71-.39,1.07-.58-.03-.05-.05-.08-.08-.11.22-.17.41-.35.61-.5.25-.06.5-.11.79-.17,0,.03.02.06.02.09.31-.16.61-.31.91-.46-.49,1.95-.93,3.94-1.24,6.08-.17,1.08-.28,2.25-.39,3.39-1.12-2.26-2.04-4.63-2.73-7.11-.6.33-1.19.66-1.77,1.02.71,2.45,1.62,4.79,2.7,7.05-.58-.63-1.02-1.18-1.3-1.55-1.19-1.55-1.85-2.61-2.12-3.08l-.47-1.05-.35-.27v-.02c.5-.38,1.02-.74,1.54-1.08-.47.27-.94.57-1.4.86-.05,0-.08.02-.13.03.41-1.24.35-2.29-.75-3.02-1.27-.83-2.42-.53-3.44.46-.38-.14-.71-.31-1.07-.41-1.52-.46-2.81.5-2.83,2.03-1.49-.31-2.7.72-2.61,2.31.03.36.11.74.17,1.12-1.19.79-1.74,1.84-1.21,3.25.46,1.24,1.46,1.54,2.76,1.41-.03.05-.06.09-.08.14-1.16,1.15-2.28,2.34-3.33,3.58-2.45-3.38-2.12-7.54.11-10.22.97-1.24,2.03-2.15,3.24-2.76.86-1.04,1.99-1.87,3.41-2.54,3.11-1.57,7.22-.97,9.97,2.12Zm-11.59-4.68c.25-.14.53-.24.79-.05.39.33.63.77.71,1.32-.46.22-.88.42-1.32.63-.28-.41-.53-.8-.58-1.29-.03-.3.17-.47.41-.61Zm-2.62,1.74c.33-.3.61-.33.93-.05.3.25.53.55.85.88-.41.38-.79.71-1.24,1.08-.28-.35-.55-.64-.77-.96-.22-.35-.13-.64.24-.96Zm-2.25,1.79c.38-.28.69-.3.97,0,.27.27.49.6.77.96-.47.35-.88.64-1.33.97-.25-.39-.49-.69-.68-1.02-.19-.38-.09-.64.27-.91Zm-2.29,2.18c.19-.2.41-.36.69-.27.46.16.8.49,1.13.85-.31.39-.6.75-.93,1.16-.5-.22-.88-.53-1.1-1.01-.14-.28.02-.53.2-.74Zm-1.71,2.83c.13-.27.28-.53.63-.52.5.03.93.27,1.34.58-.2.46-.39.88-.58,1.35-.49-.17-.93-.33-1.27-.66-.25-.22-.22-.5-.11-.75Zm-.28,2.39c.46-.05.9.08,1.33.24-.06.49-.11.94-.17,1.44-.52-.03-.97-.09-1.41-.31-.24-.13-.33-.44-.27-.82.06-.36.2-.52.52-.55Zm-2.95,6.66c.64-.11.97.08,1.12.66.06.31.09.63.14.97-.53.03-.97.06-1.48.09-.11-.42-.25-.83-.2-1.29.03-.25.17-.39.42-.44Zm4.52,3.55c-.97,1.32-1.9,2.67-2.76,4.07l-.09.09c-.17-1.29-.68-2.21-1.99-2.39-1.49-.2-2.4.57-2.89,1.9-.39.03-.77.03-1.15.09-1.57.25-2.31,1.66-1.66,3.05-1.48.36-2.12,1.82-1.35,3.22.19.31.42.61.64.94-.74,1.21-.77,2.4.31,3.46.96.91,1.99.74,3.11.06v.09c-.57,1.55-1.05,3.13-1.48,4.73-3.64-1.98-5.15-5.87-4.32-9.25.35-1.54.91-2.83,1.73-3.89.33-1.32.97-2.54,1.96-3.78,2.12-2.75,6.11-4,9.94-2.39Zm-11.45,20.46c-.53.42-1.34.09-1.49-.68.28-.28.6-.61.93-.96.42.35.79.64,1.19.97-.24.25-.41.47-.63.66Zm.13,1.59c-.52.11-.97.22-1.49.35-.16-.44-.3-.88-.42-1.26.46-.63,1.32-.58,1.62.03.13.27.19.55.3.88Zm3.88-24.99c.35-.16.68-.13.85.08.31.38.49.8.63,1.3-.49.17-.91.31-1.38.49-.24-.39-.46-.79-.52-1.24-.03-.31.09-.49.42-.63Zm-2.69,1.43c.22-.17.49-.25.75-.06.41.27.66.68.93,1.1-.41.28-.79.57-1.18.86-.39-.33-.72-.69-.86-1.18-.09-.33.13-.55.36-.72Zm-2.37,2.29c.16-.22.36-.44.68-.36.5.11.9.42,1.21.86-.31.39-.61.75-.91,1.15-.44-.24-.83-.49-1.08-.91-.16-.25-.06-.5.11-.74Zm-1.62,2.72c.17-.41.41-.57.82-.44.38.09.72.27,1.15.42-.22.52-.41.97-.64,1.51-.41-.19-.79-.33-1.12-.53-.35-.2-.39-.52-.2-.96Zm-1.26,2.59c.22-.41.5-.57.88-.42.36.13.71.33,1.12.53-.28.52-.52.96-.77,1.44-.41-.24-.75-.41-1.05-.63-.35-.25-.38-.53-.17-.93Zm-1.12,2.95c.08-.27.22-.5.52-.53.47-.06.93.09,1.38.28-.11.47-.22.93-.33,1.43-.55.03-1.02-.09-1.43-.41-.25-.2-.22-.49-.14-.77Zm-.31,3.3c0-.3.02-.6.35-.74.47-.19.96-.16,1.44-.05.03.49.05.96.06,1.46-.5.05-.96.11-1.43-.05-.31-.09-.41-.35-.42-.63Zm1.16,3.61c-.28-.02-.5-.25-.61-.63-.08-.35-.03-.53.24-.71.39-.24.83-.31,1.3-.38.16.47.3.91.47,1.38-.47.2-.93.35-1.4.33Zm.74,2.04c-.11-.22-.09-.42.09-.6.31-.31.72-.47,1.13-.64.28.39.53.77.85,1.21-.31.17-.58.36-.86.49-.55.27-.9.11-1.21-.46Zm-.9,3.91c.53-.38.91-.36,1.3.11.19.24.35.52.55.8-.47.27-.86.49-1.29.74-.3-.33-.58-.66-.74-1.08-.09-.24-.02-.42.17-.57Zm-2.36,1.81c.25-.28.55-.41.8-.3.44.2.79.52,1.12.91-.35.36-.68.68-1.02,1.02-.39-.24-.75-.5-1.01-.88-.17-.28-.13-.49.11-.75Zm-1.81,2.47c.14-.27.33-.44.66-.39.49.06.88.31,1.3.58-.24.44-.46.85-.69,1.29-.49-.11-.94-.3-1.29-.68-.22-.27-.11-.55.02-.8Zm-.69,2.47c.5-.11.99-.02,1.48.25-.13.5-.22.96-.33,1.43-.5-.03-.96-.08-1.37-.35-.25-.16-.28-.44-.24-.71.06-.28.14-.57.46-.63Zm-.17,3.02c.36-.08.75-.08,1.21-.11.03.55.05,1.05.08,1.63-.46.02-.85.05-1.24,0-.41-.03-.58-.3-.6-.75-.03-.46.13-.69.55-.77Zm-.55,3.63c.02-.47.19-.72.6-.77.39-.03.79,0,1.24,0-.03.6-.05,1.08-.08,1.65-.46-.05-.85-.05-1.21-.11-.42-.08-.58-.31-.55-.77Zm.27,3.16c-.05-.28-.02-.55.24-.71.41-.27.86-.33,1.37-.36.11.49.2.94.33,1.44-.49.25-.97.36-1.48.25-.31-.06-.39-.35-.46-.63Zm1.81,3.49c-.33.05-.52-.14-.66-.39-.13-.27-.24-.55-.02-.8.35-.38.8-.57,1.29-.69.24.44.46.85.69,1.3-.42.25-.82.5-1.3.58Zm1.95,2.36c-.25.13-.55,0-.8-.28-.24-.28-.28-.49-.11-.75.25-.39.61-.64,1.01-.9.35.35.68.68,1.02,1.04-.33.38-.68.71-1.12.9Zm-.74-6.17c-.35-1.46-.41-2.81-.17-4.07,0-.06.02-.13.03-.19,0-.03-.02-.08-.02-.11-.25-1.3-.19-2.65.16-4.15.72-3.41,3.77-6.27,7.92-6.47-.31,1.6-.55,3.22-.72,4.87-.02.03-.03.08-.05.13-.71-1.1-1.57-1.7-2.83-1.29-1.43.47-1.92,1.55-1.79,2.97-.33.2-.68.36-.97.57-1.26.9-1.37,2.42-.3,3.38.03.05.08.08.11.11-.06.05-.13.11-.19.19-.97.96-.85,2.42.38,3.28.3.22.64.38.97.57-.13,1.43.36,2.51,1.79,2.98,1.26.41,2.12-.2,2.83-1.29.02.05.03.08.05.13.14,1.27.33,2.53.53,3.78.02.02.03.03.05.06.03.02.05.05.08.08,2.01,2.43,10.66,11.51,12.93,14.13-4.35-3.35-8.72-6.69-12.86-10.3-.19-.77-.36-1.52-.52-2.28-.02-.11-.09-.39-.14-.68-3.82-.46-6.58-3.19-7.26-6.41Zm6.64,9.14c.22.17.39.41.63.64-.41.35-.77.63-1.19.97-.33-.33-.64-.66-.93-.96.16-.77.96-1.08,1.49-.66Zm-1.79-.68c.13-.38.27-.82.42-1.27.52.13.97.24,1.49.36-.11.31-.17.61-.3.86-.3.61-1.16.68-1.62.05Zm-1.26-.88c-.39.47-.77.49-1.3.11-.19-.14-.27-.35-.17-.58.16-.42.44-.74.74-1.07.42.24.82.46,1.29.72-.2.3-.36.57-.55.82Zm-.41,4.02c.31-.57.66-.72,1.21-.47.28.14.55.31.86.5-.31.44-.57.8-.85,1.21-.41-.17-.82-.33-1.13-.64-.19-.17-.2-.38-.09-.6Zm-1.35,2.65c.11-.36.33-.6.61-.61.47-.02.93.13,1.4.33-.17.47-.31.91-.47,1.37-.47-.05-.91-.13-1.3-.36-.27-.17-.31-.38-.24-.72Zm-.55,3c.02-.28.11-.53.42-.64.47-.14.93-.08,1.43-.03-.02.5-.03.97-.06,1.46-.49.11-.97.14-1.44-.06-.33-.13-.35-.44-.35-.72Zm.83,3.83c-.3-.05-.44-.28-.52-.55-.08-.27-.11-.57.14-.75.41-.33.88-.44,1.43-.42.11.5.22.96.33,1.44-.46.19-.91.33-1.38.28Zm.6,2.42c-.2-.39-.17-.68.17-.93.3-.24.64-.39,1.05-.63.25.49.49.93.77,1.44-.41.2-.75.39-1.12.53-.38.14-.66-.02-.88-.42Zm2.07,3.03c-.41.11-.64-.05-.82-.46-.19-.42-.14-.74.2-.96.33-.19.71-.33,1.12-.53.24.55.42,1.01.64,1.51-.42.17-.77.35-1.15.44Zm1.48,2.64c-.31.08-.52-.14-.68-.38-.17-.22-.27-.47-.11-.74.25-.41.64-.66,1.08-.9.3.38.6.74.91,1.15-.31.44-.71.74-1.21.86Zm2.45,1.99c-.27.17-.53.09-.75-.08-.24-.17-.46-.38-.36-.71.14-.49.47-.86.86-1.18.39.3.77.57,1.18.86-.27.42-.52.82-.93,1.1Zm2.78,1.27c-.17.22-.5.24-.85.09-.33-.14-.46-.31-.42-.63.06-.46.28-.85.52-1.24.47.16.9.31,1.38.49-.14.49-.31.93-.63,1.29Zm3.19.03c-.14.6-.47.77-1.12.66-.25-.03-.39-.19-.42-.44-.05-.44.09-.86.2-1.29.5.03.94.06,1.48.09-.05.36-.08.68-.14.97Zm-6.53-5.28c-.99-1.23-1.63-2.47-1.96-3.77-.82-1.08-1.38-2.36-1.73-3.89-.83-3.38.68-7.27,4.32-9.25.27.97.55,1.93.86,2.89,3.19,2.92,6.72,5.47,10.29,7.96,1.07,1.1,2.12,2.18,3.09,3.22.57,1.26,1.02,2.15,1.46,2.91l-1.19.97c-.74-.69-1.49-1.4-2.23-2.09-.02-.05-.05-.06-.08-.09-2.34-2.26-4.63-4.57-6.88-6.93-.27-.2-.55-.42-.82-.63l-.02-.02c-1.32-.77-2.34-2.06-3.14-3.46-1.07-.61-2.07-.74-2.98.14-1.08,1.05-1.05,2.23-.31,3.46-.22.33-.46.61-.64.94-.77,1.38-.13,2.84,1.35,3.2-.64,1.4.09,2.8,1.66,3.06.38.06.75.05,1.15.08.49,1.33,1.4,2.1,2.89,1.92,1.32-.17,1.82-1.1,1.99-2.4.03.05.06.06.09.09.86,1.4,1.79,2.76,2.76,4.07-3.83,1.63-7.82.38-9.94-2.39Zm8.81,8.14c.31,0,.61.05.97.08-.08.52-.16.96-.24,1.44-.44.03-.88.06-1.3-.08-.24-.08-.35-.25-.33-.5.03-.64.28-.94.9-.94Zm-.94-3.93c.53-.13.99-.22,1.51-.33.05.33.11.61.11.91,0,.68-.75,1.1-1.44.74-.05-.39-.11-.85-.17-1.32Zm1.04,2.4c-.2-.77.38-1.4,1.04-1.24.28.06.55.19.86.3-.22.47-.42.9-.64,1.4-.46-.17-.88-.33-1.26-.46Zm1.59-3.16c.06-.03.13-.06.19-.09.3.39.61.77.91,1.15-.03.06-.08.11-.13.16-.22-.17-.44-.31-.63-.47-.13-.24-.22-.47-.35-.74Zm-.31-1.62c-1.13-1.16-2.15-2.59-3.02-3.97-.82-1.3-1.26-2.75-1.79-4.15,2.36,2.28,4.59,4.68,6.8,7.1-.02.11,0,.22.05.35.25.55.47,1.13.68,1.7l-.63.5c-.71-.47-1.48-.91-2.09-1.52Zm-10.59-9.56c.69.13,1.32.24,1.95.35-.27.58-.53,1.18-.85,1.88-.35-.03-.74-.02-1.12-.11-.57-.13-.8-.6-.63-1.16.13-.41.36-.72.64-.96Zm.25-3.49c.3-.25.66-.35,1.04-.19.33.16.64.36,1,.57-.44.71-.63,1.41-.64,2.15-.69.13-1.46-.28-1.74-.88-.28-.6-.16-1.22.35-1.65Zm.58,7.37c.17-.35.42-.64.61-.93.75.19,1.4.36,1.99.52-.3.55-.6,1.12-.94,1.74-.35.06-.75.05-1.15-.11-.55-.22-.77-.69-.52-1.23Zm1.63-1.85c.06-.25.2-.49.36-.74.17.13.33.22.5.31-.03.19-.06.38-.06.58-.3-.02-.57-.06-.8-.16Zm.63-2.2c-.39-.64-.33-1.54.19-2.21,0,0,.02.02.03.02.44,1.08.91,2.14,1.41,3.17-.71-.09-1.26-.36-1.63-.97Zm1.19,4.7c.58.44,1.24.72,2.09.83-.08.41-.11.77-.2,1.13-.09.39-.39.61-.79.69-.64.13-1.21-.16-1.51-.74-.3-.61-.13-1.48.41-1.92Zm.28-1.63c-.25-.68-.11-1.27.25-1.88.5,1.05,1.04,2.07,1.6,3.08,0,.02,0,.03-.02.05-.83-.03-1.59-.53-1.84-1.24Zm3.69,16.9c-.06-.38.03-.69.27-.82.44-.24.9-.3,1.41-.31.06.5.11.96.17,1.44-.44.16-.88.27-1.33.22-.31-.03-.46-.19-.52-.53Zm1.43,3.44c-.35.03-.5-.24-.63-.5-.11-.27-.14-.53.11-.75.35-.35.79-.49,1.27-.66.19.46.38.9.58,1.35-.41.3-.83.55-1.34.57Zm1.77,2.59c-.28.09-.5-.06-.69-.27-.19-.22-.35-.47-.2-.75.22-.46.6-.79,1.1-.99.33.41.61.77.93,1.15-.33.38-.68.71-1.13.86Zm2.58,1.92c-.28.3-.6.27-.97,0-.36-.27-.46-.53-.27-.91.19-.33.42-.64.68-1.02.46.33.86.61,1.33.96-.28.36-.5.69-.77.97Zm2.2,1.84c-.31.27-.6.24-.93-.06-.36-.3-.46-.6-.24-.94.22-.33.49-.61.77-.97.46.39.83.72,1.24,1.08-.31.35-.55.64-.85.9Zm2.48,1.73c-.25.2-.53.09-.79-.03-.24-.14-.44-.33-.41-.63.05-.47.3-.88.58-1.29.44.22.86.42,1.32.64-.08.53-.31.97-.71,1.3Zm3.06.74c-.16.28-.42.31-.71.27-.28-.06-.58-.16-.63-.49-.09-.5.05-.97.27-1.44.49.09.94.19,1.43.28-.06.49-.11.96-.36,1.38Zm3.08-.06c-.08.28-.36.44-.74.46-.36.02-.55-.08-.64-.39-.16-.42-.13-.88-.08-1.33.49-.06.94-.11,1.44-.16.09.5.13.97.02,1.43Zm-5.31-3.27c-1.41-.69-2.54-1.51-3.41-2.54-1.21-.61-2.26-1.52-3.24-2.76-2.23-2.69-2.56-6.86-.11-10.22,1.05,1.24,2.17,2.43,3.33,3.57.02.05.05.09.08.14-1.3-.11-2.31.19-2.76,1.41-.53,1.41.02,2.48,1.21,3.25-.06.39-.14.75-.17,1.13-.09,1.59,1.12,2.62,2.61,2.31.02,1.52,1.3,2.47,2.83,2.03.36-.11.69-.27,1.07-.42,1.02.99,2.17,1.29,3.44.47,1.1-.72,1.16-1.79.75-3.02.05.02.08.02.13.03,1.37.88,2.8,1.71,4.24,2.48-2.73,3.11-6.86,3.72-9.99,2.15Zm7.46,3c-.24.06-.44,0-.57-.22-.24-.38-.3-.8-.38-1.24.46-.19.88-.36,1.37-.57.11.35.22.64.3.94.13.6-.09.91-.72,1.08Zm2.18-1.51c-.22-.35-.46-.72-.72-1.13.44-.33.8-.61,1.21-.94.19.28.38.52.5.77.3.61-.2,1.33-.99,1.3Zm1.65-.97c.28-.06.58-.06.91-.11,0,.53.02,1.01.02,1.54-.47.05-.93.09-1.33.14-.5-.6-.25-1.43.41-1.57Zm-.22,4.22c-.25-.6-.16-.97.39-1.24.28-.14.58-.24.91-.36.16.52.28.94.42,1.41-.38.22-.75.44-1.21.49-.25.03-.42-.08-.52-.3Zm1.95,2.97c-.3.11-.49.03-.71-.27-.24-.3-.27-.63-.11-.85.28-.39.68-.64,1.13-.9.27.42.52.82.79,1.24-.35.33-.68.61-1.1.77Zm2.07,2.23c-.3.17-.57,0-.79-.19-.22-.19-.35-.42-.24-.72.17-.46.5-.79.86-1.15.38.33.74.63,1.12.96-.24.46-.52.85-.96,1.1Zm2.72,1.55c-.2.2-.47.17-.74.06-.25-.11-.52-.27-.5-.58,0-.52.2-.97.57-1.38.46.22.88.42,1.32.64-.13.47-.3.91-.64,1.26Zm3.16.61c-.13.39-.42.5-.88.42-.44-.09-.64-.28-.63-.71.02-.38.11-.75.17-1.21.53.09,1.04.17,1.62.28-.11.46-.16.83-.28,1.21Zm2.78.69c-.16.39-.44.49-.86.36-.46-.13-.66-.35-.61-.75.05-.39.17-.77.27-1.21.57.16,1.05.3,1.59.44-.14.44-.22.82-.38,1.16Zm2.98.5c-.14.28-.42.31-.72.3-.27-.02-.53-.09-.63-.39-.17-.44-.13-.91-.03-1.4h1.46c.16.52.14,1.02-.08,1.49Zm2.56-.13c-.28.06-.58.11-.79-.17-.3-.41-.38-.9-.38-1.41.47-.13.93-.24,1.41-.38.16.49.31.91.27,1.4-.02.33-.24.49-.52.57Zm2.8-1.21c-.31.17-.52.16-.75-.06-.31-.33-.49-.74-.64-1.19.42-.25.82-.5,1.24-.77.3.42.53.83.63,1.3.05.27-.13.53-.47.72Zm-5.72-1.38c-1.59,0-2.95-.25-4.18-.8-1.37-.05-2.7-.41-4.13-1.08-3.16-1.46-5.26-5.07-4.54-9.16,1.51.66,3.05,1.27,4.62,1.81.03.02.05.03.08.05-1.23.46-2.01,1.16-1.88,2.47.14,1.51,1.08,2.23,2.5,2.4.13.38.2.75.35,1.1.6,1.46,2.14,1.88,3.35.94.68,1.37,2.25,1.66,3.42.6.28-.25.52-.55.79-.83,1.34.46,2.51.22,3.3-1.08.68-1.13.27-2.1-.63-3.05.05,0,.09-.02.14-.02,1.6.19,3.24.31,4.88.38-1.12,4-4.57,6.34-8.06,6.28Zm8.01-.53c-.19.17-.39.2-.6.06-.38-.25-.63-.61-.88-.97.33-.36.63-.69.99-1.08.24.25.47.47.68.72.38.47.3.85-.19,1.27Zm1.79-2.69c-.11.16-.27.28-.47.38-.08-.05-.16-.09-.25-.16-.27-.16-.58-.35-.9-.53.25-.49.46-.91.69-1.38.08.05.14.08.2.13.2.11.41.22.57.36.06.05.13.11.16.17.24.3.22.72,0,1.04Zm0-2.69c-.19-.05-.36-.09-.57-.14.02-.08.03-.14.05-.2h1.46c.02.06.03.13.05.2-.27.06-.52.14-.77.19-.08-.02-.14-.03-.22-.05Zm.91,3.06c-.72-.31-.86-1.16-.33-1.59.24-.19.5-.31.79-.49.24.47.44.9.68,1.38-.41.25-.79.49-1.13.69Zm1.92,2.37c-.22.14-.42.11-.61-.06-.47-.42-.55-.8-.17-1.27.19-.25.42-.47.66-.72.38.39.68.72,1.01,1.08-.27.36-.5.72-.88.97Zm2.43,1.79c-.22.22-.42.24-.75.06-.33-.19-.52-.46-.46-.72.08-.47.33-.88.63-1.3.42.27.82.52,1.23.77-.14.46-.31.86-.64,1.19Zm2.84,1.1c-.2.28-.5.24-.79.17-.28-.08-.5-.24-.53-.57-.05-.49.13-.91.28-1.4.49.14.93.25,1.41.38-.02.52-.09,1.01-.38,1.41Zm3.13.2c-.11.3-.36.38-.64.39-.28.02-.58-.02-.71-.3-.22-.47-.24-.97-.09-1.49h1.48c.08.49.13.96-.03,1.4Zm2.5-.05c-.44.13-.71.03-.88-.36-.14-.35-.24-.72-.38-1.16.53-.14,1.02-.28,1.59-.44.11.44.22.82.28,1.21.05.41-.17.63-.61.75Zm2.8-.63c-.47.08-.75-.03-.9-.42-.11-.38-.17-.75-.27-1.21.58-.11,1.07-.19,1.62-.28.06.46.14.83.16,1.21.03.42-.17.61-.61.71Zm-2.1-2.75c-1.24.55-2.61.8-4.18.8-3.49.06-6.96-2.28-8.07-6.28,1.65-.06,3.28-.19,4.9-.38.05,0,.09.02.14.02-.91.94-1.3,1.92-.63,3.05.77,1.3,1.95,1.54,3.3,1.08.27.28.5.58.77.83,1.18,1.07,2.75.77,3.44-.6,1.21.94,2.75.52,3.35-.94.14-.35.22-.72.33-1.1,1.41-.17,2.37-.9,2.51-2.4.11-1.3-.68-2.01-1.88-2.47.02-.02.05-.03.06-.05,1.57-.53,3.11-1.15,4.62-1.81.74,4.08-1.37,7.7-4.54,9.16-1.41.68-2.76,1.04-4.11,1.08Zm5.1,1.77c-.25.11-.52.14-.74-.06-.35-.35-.5-.79-.64-1.26.44-.22.86-.42,1.33-.64.35.41.57.86.57,1.38,0,.31-.25.47-.52.58Zm2.76-1.81c-.22.19-.47.36-.77.19-.46-.25-.74-.64-.96-1.1.38-.33.72-.63,1.1-.96.36.36.69.69.86,1.15.13.3-.02.53-.24.72Zm2.01-2.31c-.22.3-.41.38-.71.27-.44-.16-.77-.44-1.1-.77.27-.42.5-.82.79-1.24.44.25.83.5,1.12.9.17.22.13.55-.09.85Zm1.24-2.7c-.09.22-.28.33-.53.3-.44-.05-.82-.27-1.21-.49.14-.47.27-.9.42-1.41.33.13.63.22.91.36.55.27.64.64.41,1.24Zm.17-2.65c-.39-.05-.85-.09-1.32-.14v-1.54c.35.05.64.05.91.11.68.14.93.97.41,1.57Zm1.24-.6c-.79.03-1.27-.69-.97-1.3.13-.25.3-.49.49-.77.42.33.79.61,1.21.94-.25.41-.5.79-.72,1.13Zm2.76,1.29c-.14.22-.33.28-.58.22-.61-.17-.85-.49-.71-1.08.06-.3.17-.6.28-.94.5.2.91.38,1.37.57-.06.44-.14.86-.36,1.24Zm2.97.55c-.11.31-.28.41-.64.39-.39-.02-.66-.17-.74-.46-.13-.46-.08-.93,0-1.43.5.05.96.09,1.44.16.06.46.08.91-.06,1.33Zm2.4.27c-.28.05-.55.02-.72-.27-.25-.42-.3-.9-.36-1.38.5-.09.96-.19,1.44-.28.22.47.35.94.27,1.44-.06.33-.35.42-.63.49Zm-8.48-5.75c1.46-.77,2.87-1.6,4.26-2.48.03-.02.08-.02.11-.03-.39,1.22-.33,2.29.77,3.02,1.26.82,2.42.52,3.44-.47.36.16.71.31,1.05.42,1.54.44,2.81-.5,2.84-2.03,1.49.31,2.7-.72,2.59-2.31-.02-.38-.09-.74-.16-1.13,1.19-.77,1.73-1.84,1.21-3.25-.46-1.22-1.48-1.52-2.78-1.41.03-.05.06-.09.09-.14,1.16-1.13,2.26-2.32,3.33-3.57,2.43,3.36,2.1,7.54-.11,10.22-.99,1.24-2.04,2.15-3.25,2.76-.86,1.04-1.98,1.85-3.41,2.54-3.11,1.57-7.24.96-9.99-2.15Zm11.61,4.71c-.25.13-.52.24-.77.03-.41-.33-.63-.77-.72-1.3.46-.22.88-.42,1.32-.64.3.41.53.82.58,1.29.03.3-.16.49-.41.63Zm2.64-1.76c-.35.3-.61.33-.94.06-.28-.25-.53-.55-.85-.9.42-.36.8-.69,1.24-1.08.28.36.57.64.77.97.22.35.13.64-.22.94Zm2.25-1.77c-.38.27-.69.3-.99,0-.27-.28-.49-.61-.77-.97.49-.35.88-.63,1.33-.96.25.38.5.69.68,1.02.2.38.11.64-.25.91Zm2.28-2.18c-.17.2-.41.36-.69.27-.46-.16-.79-.49-1.12-.86.3-.38.6-.74.91-1.15.5.2.88.53,1.12.99.14.28-.02.53-.22.75Zm1.71-2.83c-.11.27-.27.53-.61.5-.52-.02-.94-.27-1.34-.57.19-.46.38-.9.58-1.35.47.17.91.31,1.27.66.24.22.22.49.09.75Zm.28-2.4c-.46.05-.88-.06-1.32-.22.06-.49.11-.94.17-1.44.5.02.97.08,1.4.31.25.13.35.44.27.82-.06.35-.19.5-.52.53Zm2.97-6.66c-.64.11-.99-.06-1.12-.66-.08-.3-.09-.61-.16-.97.53-.03.99-.06,1.48-.09.13.42.25.85.2,1.29-.02.25-.17.41-.41.44Zm-4.52-3.55c.97-1.3,1.88-2.67,2.75-4.07.03-.03.06-.05.09-.09.17,1.3.69,2.23,1.99,2.4,1.49.19,2.42-.58,2.91-1.92.39-.03.77-.02,1.13-.08,1.57-.27,2.31-1.66,1.66-3.06,1.49-.36,2.14-1.82,1.35-3.2-.17-.33-.41-.61-.64-.94.74-1.22.77-2.4-.31-3.46-.94-.91-1.99-.74-3.11-.06,0-.05,0-.08.02-.11.33-.94.64-1.9.93-2.86-.03.05-.06.11-.09.17-.06-.17-.13-.35-.19-.53-.94-2.4-2.37-6.05-5.54-10.32-.63-.85-1.37-1.71-2.15-2.56.31-.5.61-1.01.9-1.52,1.16,1.35,2.17,2.67,2.97,3.91,2.83,4.44,3.75,7.76,4.33,10.08.11-.36.22-.72.31-1.08,3.66,1.98,5.17,5.87,4.32,9.25-.35,1.54-.9,2.81-1.71,3.89-.33,1.3-.99,2.54-1.98,3.77-2.12,2.76-6.11,4.02-9.93,2.39Zm11.45-20.45c.53-.42,1.34-.11,1.48.66-.27.3-.6.63-.93.96-.42-.35-.79-.63-1.19-.97.24-.24.42-.47.64-.64Zm-.13-1.59c.5-.13.96-.24,1.49-.36.16.46.3.9.42,1.27-.47.63-1.34.57-1.63-.05-.11-.25-.19-.55-.28-.86Zm-3.88,24.99c-.36.14-.68.13-.86-.09-.31-.36-.47-.8-.61-1.29.47-.17.9-.33,1.37-.49.25.39.47.79.52,1.24.03.31-.08.49-.41.63Zm2.69-1.44c-.24.17-.49.25-.77.08-.39-.28-.64-.68-.91-1.1.39-.3.77-.57,1.18-.86.39.31.72.69.86,1.18.09.33-.13.53-.36.71Zm2.37-2.29c-.17.24-.38.46-.68.38-.5-.13-.91-.42-1.22-.86.33-.41.61-.77.93-1.15.42.24.82.49,1.07.9.16.27.06.52-.09.74Zm1.62-2.72c-.17.41-.42.57-.83.46-.36-.09-.71-.27-1.15-.44.22-.5.42-.96.64-1.51.42.2.79.35,1.12.53.36.22.41.53.22.96Zm1.24-2.58c-.22.41-.49.57-.88.42-.36-.14-.71-.33-1.12-.53.28-.52.52-.96.79-1.44.39.24.74.39,1.05.63.35.25.38.53.16.93Zm1.12-2.97c-.08.27-.2.5-.5.55-.49.05-.93-.09-1.38-.28.11-.49.2-.94.31-1.44.55-.02,1.04.09,1.44.42.25.19.2.49.13.75Zm.31-3.28c.02.28-.02.6-.33.72-.47.2-.96.17-1.46.06-.02-.49-.03-.96-.06-1.46.5-.05.97-.11,1.43.03.31.11.42.36.42.64Zm-.55-3c.09.35.05.55-.24.72-.39.24-.83.31-1.29.36-.16-.46-.31-.9-.47-1.37.47-.2.91-.35,1.4-.33.28.02.5.25.6.61Zm-1.35-2.65c.13.22.09.42-.08.6-.33.31-.72.47-1.13.64-.28-.41-.55-.77-.85-1.21.3-.19.57-.36.85-.5.55-.25.9-.09,1.21.47Zm.9-3.91c-.53.38-.91.36-1.29-.11-.2-.25-.36-.52-.57-.82.47-.27.86-.49,1.29-.72.3.33.6.64.75,1.07.08.24.02.44-.19.58Zm-5.54-1.24c.24.57.38,1.13.36,1.65v.02c.11.72.05,1.48-.69,1.9.02-.03.02-.08.03-.11.11-.33.13-.79.09-1.24-.08.16-.16.33-.25.5-.06-.03-.13-.05-.19-.08.11-.46.22-.91.31-1.37-.31-1.6-.93-3.38-1.79-4.59.71.86,1.57,2.04,2.07,3.2.09-.47.16-.94.24-1.41-.88-1.7-1.96-3.6-3.39-5.65-.75-1.08-1.62-2.21-2.59-3.35-.08-.11-.17-.2-.27-.3-.31-.39-.66-.77-1.02-1.15.28-.6.57-1.18.82-1.77.88.99,1.7,1.96,2.4,2.92.08.09.16.2.22.3.86,1.15,1.59,2.25,2.21,3.3.77,1.29,1.4,2.48,1.92,3.6.06-.41.11-.82.16-1.22.02-.05.03-.08.05-.13.72,1.08,1.59,1.7,2.83,1.29,1.44-.47,1.93-1.55,1.79-2.98.35-.19.69-.35.99-.57,1.23-.86,1.35-2.32.36-3.28-.06-.08-.13-.13-.19-.19.03-.03.08-.06.11-.11,1.08-.96.97-2.48-.28-3.38-.3-.2-.64-.36-.99-.57.14-1.41-.35-2.5-1.79-2.97-1.15-.38-1.96.11-2.64,1.02.02.08.03.16.03.25-1.48,1.01-3.49,1.21-5.34.77-.08-.02-.16-.02-.22-.02-.06-.05-.13-.08-.2-.11-.08-.02-.16-.03-.24-.05-.08-.08-.14-.16-.22-.24.24-.63.47-1.26.69-1.88,1.55-.22,3.09-.49,4.6-.8l.03-.08c.16.17.3.41.42.69-.14-1.1-.3-2.18-.5-3.27,4.15.2,7.19,3.06,7.9,6.47.35,1.49.41,2.84.16,4.15,0,.03-.02.08-.02.11.02.06.03.13.03.19.24,1.26.17,2.61-.17,4.07-.71,3.39-3.72,6.23-7.84,6.45Zm.88-13.19c-.24.53-.57,1.01-.94,1.24-.41.25-1.18.2-1.74-.06-.28-.14-.49-.33-.58-.58-.28-.3-.57-.71-.74-1.05-.14-.17-.28-.35-.44-.52,1.6.16,3.19-.09,4.54-.75.05-.08.11-.14.14-.2.11.27.11.61.05.99.58.42.9,1.08.83,1.71-.05.57-.31.99-.69,1.33.02.09.05.17.05.27.05.09.06.2.06.3.05.13.06.25.08.38.27.31.46.68.5,1.13.05.52-.14,1.04-.52,1.44-.09.69-.25,1.35-.52,1.93-.05.08-.08.17-.11.25-.25-.57-.49-1.24-.69-1.93-.47-.96-.88-2.18-1.24-3.2v-.02c-.03-.08-.08-.14-.13-.2.11-.02.22-.03.35-.05.06,0,.13-.02.19-.03.57-.08,1.16-.27,1.6-.63,0-.58-.02-1.16-.05-1.74Zm2.64,2.48c-.06.06-.13.13-.2.19-.13.11-.28.2-.44.3-.06-.11-.13-.2-.19-.3-.05-.06-.08-.13-.13-.19.03-.03.05-.08.08-.11.08-.13.16-.25.24-.39.19.13.36.24.52.39.05.03.08.06.13.11Zm-.25,1.73c.47-.41.97-.83,1.57-1.32.28.17.66.33.96.57.46.38.46.88.06,1.32-.28.31-.64.5-.99.6-.58-.41-1.1-.79-1.6-1.16Zm.88,2.86c0,.66-.39,1.16-1.02,1.33-.39.09-.75.02-1.02-.28-.24-.28-.42-.6-.66-.94.71-.46,1.18-1.01,1.51-1.66.68.19,1.21.88,1.19,1.55Zm1.65-5.56c-.3.24-.68.39-.96.57-.6-.5-1.1-.93-1.57-1.32.5-.38,1.02-.75,1.6-1.16.35.08.71.27.99.58.39.44.39.96-.06,1.33Zm-2.84-2.07c-.33-.64-.8-1.19-1.51-1.66.24-.33.42-.64.66-.93.27-.31.63-.38,1.02-.28.63.16,1.02.68,1.02,1.32.02.68-.52,1.38-1.19,1.55Zm4.96,13.19c-.25.28-.55.41-.82.28-.44-.19-.77-.52-1.12-.9.36-.36.68-.69,1.02-1.04.39.25.75.5,1.01.9.17.27.14.47-.09.75Zm1.79-2.47c-.13.25-.33.44-.66.39-.47-.08-.86-.33-1.29-.58.24-.46.44-.86.68-1.3.5.13.96.31,1.29.69.24.25.13.53-.02.8Zm1.15-3.09c-.05.28-.14.57-.46.63h-.02c-.5.11-.97,0-1.44-.25.11-.5.22-.96.33-1.44.39.03.77.06,1.12.24.08.03.17.08.25.13.25.16.27.42.22.71Zm-.27-2.39c-.06.02-.14.02-.2.02-.31.05-.63.06-1.02.09-.02-.57-.05-1.05-.06-1.65.39,0,.75-.03,1.08,0,.05-.02.09,0,.14,0,.41.05.58.3.61.77.02.46-.13.69-.55.77Zm-66.32-36.56v.06c.11.06.2.13.31.17-.11-.08-.22-.16-.31-.24Zm62.4,34.55h-3.35c-.13.11-.28.2-.44.3-.06-.11-.13-.2-.19-.3h-1.27c.05.13.06.25.08.38.27.31.46.68.5,1.13.05.52-.14,1.04-.52,1.44-.09.69-.25,1.35-.52,1.93-.05.08-.08.17-.11.25-.25-.57-.49-1.24-.69-1.93-.47-.96-.88-2.18-1.24-3.2h-2.56c.86,1.15,1.59,2.25,2.21,3.3.77,1.29,1.4,2.48,1.92,3.6.06-.41.11-.82.16-1.22.02-.05.03-.08.05-.13.72,1.08,1.59,1.7,2.83,1.29,1.44-.47,1.93-1.55,1.79-2.98.35-.19.69-.35.99-.57,1.23-.86,1.35-2.32.36-3.28Zm-3.53,5.73c-.39.09-.75.02-1.02-.28-.24-.28-.42-.6-.66-.94.71-.46,1.18-1.01,1.51-1.66.68.19,1.21.88,1.19,1.55,0,.66-.39,1.16-1.02,1.33Zm2.73-3.63c-.28.31-.64.5-.99.6-.58-.41-1.1-.79-1.6-1.16.47-.41.97-.83,1.57-1.32.28.17.66.33.96.57.46.38.46.88.06,1.32Zm-61.6-36.66v.06c.11.06.2.13.31.17-.11-.08-.22-.16-.31-.24Zm62.4,34.55h-3.35c-.13.11-.28.2-.44.3-.06-.11-.13-.2-.19-.3h-1.27c.05.13.06.25.08.38.27.31.46.68.5,1.13.05.52-.14,1.04-.52,1.44-.09.69-.25,1.35-.52,1.93-.05.08-.08.17-.11.25-.25-.57-.49-1.24-.69-1.93-.47-.96-.88-2.18-1.24-3.2h-2.56c.86,1.15,1.59,2.25,2.21,3.3.77,1.29,1.4,2.48,1.92,3.6.06-.41.11-.82.16-1.22.02-.05.03-.08.05-.13.72,1.08,1.59,1.7,2.83,1.29,1.44-.47,1.93-1.55,1.79-2.98.35-.19.69-.35.99-.57,1.23-.86,1.35-2.32.36-3.28Zm-3.53,5.73c-.39.09-.75.02-1.02-.28-.24-.28-.42-.6-.66-.94.71-.46,1.18-1.01,1.51-1.66.68.19,1.21.88,1.19,1.55,0,.66-.39,1.16-1.02,1.33Zm2.73-3.63c-.28.31-.64.5-.99.6-.58-.41-1.1-.79-1.6-1.16.47-.41.97-.83,1.57-1.32.28.17.66.33.96.57.46.38.46.88.06,1.32Z"/>
      <path class="cls-2" d="m397.38,89.13c.08,0,.15,0,.23.02-.04-.01-.08-.02-.13-.04-.04,0-.07.01-.1.02Z"/>
      <path class="cls-2" d="m410.06,75.59s.01-.04,0-.06c-.08-.1-.16-.19-.24-.29l.23.35Z"/>
      <path class="cls-2" d="m302.87,68.59l.27.44c-.04-.08-.1-.17-.14-.25-.05-.06-.09-.12-.13-.19Z"/>
      <path class="cls-2" d="m398.67,89.22s.03,0,.04,0c0,0-.01,0-.02,0,0,0-.02,0-.02,0Z"/>
      <text class="cls-5" transform="translate(51.62 45.99)"><tspan class="cls-3" x="0" y="0">a</tspan><tspan class="cls-4" x="46.64" y="0">teli</tspan></text>
      <text class="cls-10" transform="translate(54.33 182.11)"><tspan x="0" y="0">Miranda</tspan></text>
    </g>
  </g>
</svg>